<?xml version="1.0" standalone="no"?><!DOCTYPE svg PUBLIC "-//W3C//DTD SVG 1.1//EN" "http://www.w3.org/Graphics/SVG/1.1/DTD/svg11.dtd"><svg height="1366" node-id="1" sillyvg="true" template-height="1366" template-width="1366" version="1.1" viewBox="0 0 1366 1366" width="1366" xmlns="http://www.w3.org/2000/svg" xmlns:xlink="http://www.w3.org/1999/xlink"><defs node-id="46"><clipPath id="clip0_1_1005" node-id="43"><path d="M 0.00 0.00 L 1365.30 0.00 L 1365.30 1365.30 L 0.00 1365.30 Z" fill="#000000" fill-rule="nonzero" node-id="49" stroke="none" target-height="1365.3" target-width="1365.3" target-x="0" target-y="0"></path></clipPath></defs><g clip-path="url(#clip0_1_1005)" id="sillyvg_g_0" node-id="53"><path d="M 1364.50 1363.00 L 1478.80 1363.00 L 1478.80 1819.63 L 1364.50 1819.63 L 1364.50 1363.00 Z M 1433.37 1440.06 L 1423.33 1441.13 L 1419.31 1441.36 L 1411.60 1440.96 L 1408.44 1440.39 L 1405.29 1440.09 L 1403.71 1440.13 L 1402.13 1440.33 L 1401.05 1440.73 L 1399.97 1441.23 L 1398.10 1442.50 L 1396.52 1444.04 L 1394.91 1446.15 L 1394.09 1447.42 L 1393.29 1448.86 L 1392.51 1450.46 L 1391.74 1452.17 L 1391.01 1454.04 L 1390.28 1456.01 L 1389.58 1458.15 L 1388.90 1460.39 L 1388.25 1462.77 L 1387.63 1465.21 L 1387.04 1467.82 L 1386.47 1470.49 L 1385.93 1473.27 L 1385.43 1476.11 L 1384.95 1479.09 L 1384.52 1482.13 L 1384.12 1485.24 L 1383.75 1488.42 L 1383.42 1491.70 L 1383.10 1495.24 L 1382.83 1498.86 L 1382.59 1502.47 L 1382.39 1506.18 L 1382.24 1509.89 L 1382.11 1513.61 L 1382.02 1517.39 L 1381.93 1524.88 L 1381.90 1548.69 L 1381.83 1554.61 L 1381.60 1567.02 L 1381.22 1579.96 L 1381.01 1586.42 L 1380.18 1608.89 L 1379.95 1616.42 L 1379.74 1626.49 L 1379.67 1631.50 L 1379.64 1636.55 L 1379.65 1641.57 L 1379.71 1646.65 L 1379.80 1650.00 L 1380.04 1656.65 L 1380.21 1659.96 L 1380.41 1663.24 L 1380.66 1666.49 L 1380.94 1669.63 L 1381.28 1672.74 L 1381.72 1676.32 L 1381.90 1677.32 L 1382.03 1677.72 L 1380.52 1686.96 L 1380.05 1690.13 L 1379.51 1694.51 L 1379.28 1696.79 L 1379.02 1700.80 L 1378.88 1704.92 L 1378.87 1706.99 L 1378.88 1709.06 L 1378.93 1711.14 L 1379.02 1713.18 L 1379.13 1715.22 L 1379.28 1717.19 L 1379.48 1719.10 L 1379.95 1722.71 L 1380.23 1724.35 L 1380.53 1725.89 L 1380.87 1727.36 L 1381.23 1728.73 L 1381.60 1730.00 L 1382.01 1731.14 L 1382.43 1732.17 L 1382.87 1733.11 L 1383.33 1733.88 L 1383.79 1734.52 L 1384.27 1735.02 L 1384.86 1735.45 L 1385.45 1735.69 L 1386.04 1735.75 L 1416.48 1735.75 L 1416.65 1735.59 L 1416.81 1735.25 L 1417.06 1734.28 L 1417.23 1733.01 L 1417.28 1731.64 L 1418.27 1733.75 L 1419.29 1735.75 L 1419.97 1736.99 L 1421.39 1739.16 L 1422.14 1740.03 L 1422.91 1740.74 L 1423.70 1741.27 L 1424.29 1741.54 L 1425.47 1741.64 L 1426.07 1741.54 L 1426.66 1741.27 L 1427.24 1740.87 L 1427.82 1740.30 L 1428.75 1739.00 L 1429.11 1738.26 L 1429.26 1737.79 L 1429.39 1737.16 L 1429.45 1736.59 L 1429.48 1734.68 L 1430.03 1734.45 L 1430.29 1734.11 L 1430.54 1733.65 L 1430.77 1734.62 L 1431.04 1735.45 L 1431.19 1735.69 L 1431.36 1735.75 L 1458.61 1735.69 L 1459.13 1735.59 L 1459.65 1735.28 L 1460.16 1734.85 L 1460.67 1734.25 L 1461.16 1733.48 L 1461.63 1732.58 L 1462.08 1731.54 L 1462.52 1730.37 L 1462.93 1729.06 L 1463.31 1727.63 L 1463.67 1726.12 L 1464.00 1724.48 L 1464.30 1722.74 L 1464.57 1720.97 L 1464.79 1719.06 L 1464.99 1717.12 L 1465.16 1714.78 L 1465.29 1712.41 L 1465.37 1710.00 L 1465.41 1707.56 L 1465.39 1705.15 L 1465.32 1702.71 L 1465.20 1700.33 L 1465.04 1697.99 L 1464.83 1695.72 L 1464.55 1693.44 L 1464.24 1691.24 L 1463.56 1687.02 L 1461.91 1677.72 L 1461.04 1673.21 L 1461.25 1671.10 L 1461.45 1667.16 L 1461.71 1660.47 L 1461.82 1655.12 L 1461.79 1648.89 L 1461.73 1645.82 L 1461.59 1641.20 L 1461.40 1636.59 L 1461.17 1632.04 L 1460.68 1623.21 L 1460.28 1614.55 L 1460.14 1607.79 L 1460.11 1604.41 L 1460.13 1599.36 L 1460.19 1594.28 L 1460.40 1584.18 L 1461.35 1552.14 L 1461.56 1544.11 L 1461.73 1536.08 L 1461.81 1530.73 L 1461.86 1525.35 L 1461.85 1511.23 L 1461.76 1505.45 L 1461.51 1498.39 L 1461.32 1494.21 L 1461.08 1490.09 L 1460.86 1487.02 L 1460.61 1484.01 L 1460.01 1478.12 L 1459.67 1475.28 L 1459.29 1472.47 L 1458.88 1469.76 L 1458.44 1467.12 L 1457.98 1464.64 L 1457.49 1462.30 L 1456.97 1460.06 L 1456.42 1457.92 L 1455.84 1455.88 L 1455.25 1453.97 L 1454.57 1452.03 L 1453.89 1450.29 L 1453.17 1448.65 L 1452.43 1447.22 L 1451.67 1445.91 L 1450.90 1444.74 L 1450.12 1443.70 L 1449.32 1442.80 L 1447.93 1441.56 L 1446.18 1440.56 L 1445.10 1440.19 L 1442.97 1439.76 L 1440.57 1439.62 L 1438.17 1439.66 L 1433.37 1440.06 Z" fill="#fdfdfd" fill-rule="nonzero" node-id="55" stroke="none" target-height="456.63464" target-width="114.300415" target-x="1364.5" target-y="1363"></path><path d="M 822.70 230.40 L 880.00 229.20 L 908.70 229.10 L 937.30 229.50 L 962.80 230.80 L 975.60 231.90 L 996.60 234.90 L 1013.20 238.60 L 1022.70 241.30 L 1032.00 244.40 L 1041.20 247.90 L 1050.30 251.80 L 1059.10 256.10 L 1067.70 261.00 L 1075.90 266.20 L 1084.00 272.00 L 1091.10 277.70 L 1098.00 283.80 L 1104.50 290.20 L 1110.80 296.90 L 1116.60 303.90 L 1122.10 311.30 L 1127.40 319.20 L 1132.30 327.30 L 1136.80 335.70 L 1140.90 344.20 L 1144.70 352.90 L 1151.00 370.80 L 1153.60 380.00 L 1156.50 392.30 L 1158.80 404.80 L 1161.70 425.90 L 1162.80 443.20 L 1163.00 485.40 L 1162.40 501.50 L 1161.40 517.50 L 1159.40 541.50 L 1156.90 565.50 L 1145.50 661.30 L 1143.00 691.50 L 1142.30 706.70 L 1142.10 721.80 L 1142.40 731.90 L 1144.10 752.10 L 1148.80 778.00 L 1154.70 804.40 L 1157.40 818.00 L 1159.70 831.80 L 1161.40 845.60 L 1162.10 854.80 L 1162.50 873.40 L 1161.20 889.40 L 1158.10 909.40 L 1155.70 921.20 L 1153.20 927.50 L 1139.60 910.70 L 1125.70 894.20 L 1106.40 872.80 L 1086.20 852.40 L 1075.70 842.50 L 1064.90 833.00 L 1065.10 650.60 L 1064.90 645.20 L 1063.30 634.50 L 1062.00 629.20 L 1060.30 624.10 L 1058.20 619.10 L 1053.10 610.00 L 1046.80 601.80 L 1042.00 596.90 L 1036.80 592.50 L 1031.10 588.50 L 1025.10 585.00 L 1018.90 582.20 L 1012.40 579.80 L 1007.40 578.50 L 997.20 576.90 L 992.00 576.60 L 914.80 576.60 L 914.90 523.60 L 915.30 520.70 L 919.90 502.70 L 921.70 489.20 L 922.00 482.40 L 921.80 475.60 L 921.20 468.90 L 920.10 462.20 L 918.50 455.60 L 916.30 449.20 L 914.30 444.50 L 911.90 440.10 L 909.20 435.80 L 906.20 431.80 L 899.20 424.50 L 895.30 421.20 L 891.20 418.30 L 886.90 415.70 L 887.10 406.00 L 886.90 396.30 L 886.10 386.70 L 885.00 377.00 L 883.30 367.40 L 881.00 358.00 L 878.30 348.70 L 875.00 339.60 L 871.00 330.70 L 868.50 326.40 L 863.60 320.00 L 858.80 315.60 L 856.00 313.90 L 852.90 312.70 L 849.70 312.00 L 846.40 311.80 L 843.10 312.30 L 840.00 313.40 L 834.90 316.40 L 829.40 321.40 L 826.50 324.80 L 821.30 332.10 L 818.50 324.30 L 815.20 316.60 L 811.50 309.10 L 807.30 301.80 L 802.70 294.90 L 797.70 288.20 L 793.60 283.50 L 784.50 274.90 L 779.50 271.00 L 774.10 267.30 L 762.80 260.90 L 756.90 258.20 L 748.70 255.10 L 740.50 252.60 L 732.00 250.60 L 723.40 249.20 L 714.70 248.20 L 706.00 247.70 L 697.30 247.70 L 688.60 248.20 L 677.80 249.40 L 675.70 250.10 L 672.20 252.60 L 669.70 256.20 L 668.50 260.30 L 668.50 262.60 L 668.80 265.20 L 669.70 267.60 L 671.10 269.80 L 672.80 271.80 L 674.80 273.50 L 689.60 284.00 L 695.70 288.80 L 701.60 293.80 L 707.10 299.30 L 712.20 305.10 L 700.80 302.80 L 689.30 301.20 L 677.60 300.20 L 666.00 299.80 L 654.40 299.90 L 642.70 300.60 L 631.10 301.80 L 619.50 303.30 L 608.10 305.40 L 598.30 307.50 L 569.20 315.40 L 557.80 317.70 L 546.40 319.50 L 534.90 320.80 L 523.30 321.60 L 511.70 321.90 L 500.10 321.70 L 488.60 321.00 L 477.00 320.00 L 457.00 317.00 L 428.90 310.50 L 426.30 310.50 L 423.60 311.00 L 421.10 311.80 L 416.60 314.60 L 414.70 316.50 L 413.10 318.60 L 411.10 323.20 L 410.80 325.40 L 410.80 327.60 L 411.40 330.90 L 412.40 334.10 L 416.00 343.50 L 420.10 352.70 L 424.60 361.70 L 429.60 370.50 L 435.00 379.00 L 440.90 387.10 L 447.20 395.00 L 453.90 402.50 L 461.10 409.60 L 453.30 413.90 L 445.80 418.70 L 438.60 423.80 L 431.60 429.30 L 418.40 441.10 L 411.40 448.20 L 404.80 455.60 L 400.70 460.90 L 393.20 471.90 L 390.00 478.30 L 388.90 481.70 L 388.20 487.60 L 388.40 489.90 L 390.10 495.00 L 391.50 497.50 L 393.40 499.70 L 395.60 501.50 L 398.00 503.00 L 400.70 504.10 L 403.60 504.80 L 406.40 505.00 L 409.30 504.80 L 433.20 500.30 L 431.40 511.40 L 430.50 525.40 L 430.30 573.80 L 425.30 574.10 L 405.00 576.30 L 350.60 576.60 L 345.40 576.90 L 335.20 578.60 L 330.20 579.90 L 323.70 582.30 L 317.50 585.20 L 311.60 588.70 L 305.90 592.70 L 300.70 597.10 L 295.90 602.00 L 289.60 610.20 L 284.50 619.20 L 282.40 624.40 L 280.60 629.80 L 279.30 635.20 L 277.70 646.40 L 277.50 652.00 L 277.50 856.00 L 265.30 869.50 L 253.40 883.20 L 241.90 897.20 L 230.70 911.60 L 219.90 926.20 L 209.40 941.00 L 207.90 939.80 L 205.70 936.80 L 200.40 926.10 L 196.40 916.80 L 193.00 907.40 L 190.10 897.70 L 187.70 887.90 L 185.60 878.00 L 184.00 868.10 L 181.70 848.10 L 181.00 832.90 L 180.80 817.90 L 181.20 802.80 L 182.00 787.80 L 184.60 757.70 L 187.30 735.20 L 190.50 712.80 L 197.20 668.00 L 202.10 629.40 L 204.20 610.00 L 207.00 572.90 L 207.80 555.20 L 208.20 484.00 L 209.30 461.60 L 210.40 450.30 L 211.90 439.20 L 213.70 428.10 L 216.10 417.00 L 218.90 406.20 L 222.20 395.40 L 229.90 375.00 L 234.30 365.50 L 239.10 356.20 L 244.30 347.10 L 250.00 338.20 L 256.00 329.70 L 262.40 321.40 L 269.20 313.40 L 276.30 305.60 L 283.70 298.30 L 291.50 291.20 L 299.60 284.50 L 307.90 278.10 L 316.60 272.20 L 325.40 266.60 L 334.60 261.50 L 343.90 256.70 L 353.50 252.40 L 363.20 248.60 L 373.20 245.20 L 382.50 242.30 L 401.40 237.70 L 423.70 233.90 L 436.60 232.40 L 449.50 231.20 L 468.40 230.60 L 487.20 230.50 L 506.10 230.80 L 562.60 233.10 L 654.70 234.30 L 702.70 233.60 L 822.70 230.40 Z M 1014.90 305.70 L 1012.50 307.20 L 1010.30 309.00 L 986.50 331.20 L 956.60 359.40 L 953.60 362.40 L 950.80 365.70 L 950.10 367.40 L 949.80 370.80 L 950.90 374.00 L 951.90 375.50 L 954.60 377.70 L 956.30 378.40 L 958.30 378.80 L 960.20 378.70 L 962.00 378.20 L 963.80 377.30 L 966.90 374.90 L 1023.30 322.00 L 1025.80 319.20 L 1027.30 315.80 L 1027.60 314.00 L 1026.80 310.30 L 1025.90 308.80 L 1023.40 306.30 L 1020.10 305.00 L 1016.70 305.10 L 1014.90 305.70 Z M 297.70 349.70 L 295.90 350.60 L 294.40 351.80 L 293.30 353.40 L 292.50 355.20 L 292.00 359.00 L 292.30 361.00 L 293.10 362.70 L 294.30 364.30 L 299.20 368.20 L 354.20 404.30 L 357.70 405.90 L 361.40 406.00 L 364.90 404.70 L 366.30 403.50 L 367.50 402.10 L 368.90 398.20 L 369.00 396.00 L 368.40 393.90 L 367.40 392.00 L 366.00 390.30 L 306.30 351.10 L 304.30 349.90 L 302.10 349.30 L 299.90 349.20 L 297.70 349.70 Z M 1044.20 404.20 L 982.70 412.40 L 979.80 413.50 L 977.30 416.30 L 976.30 418.50 L 975.90 420.80 L 976.10 423.10 L 976.50 424.50 L 978.20 427.10 L 979.80 428.40 L 981.50 429.30 L 983.40 429.70 L 986.30 429.90 L 1049.60 421.80 L 1051.50 421.30 L 1053.20 420.40 L 1055.80 417.50 L 1057.00 413.90 L 1057.00 412.00 L 1056.60 410.20 L 1054.40 406.50 L 1052.70 405.20 L 1050.70 404.40 L 1048.60 404.00 L 1044.20 404.20 Z M 285.80 439.20 L 283.80 439.80 L 282.10 440.80 L 280.70 442.30 L 279.60 444.00 L 278.90 445.90 L 278.80 448.00 L 278.90 449.60 L 279.90 452.60 L 281.40 454.50 L 283.30 455.90 L 284.70 456.60 L 287.90 457.10 L 346.80 457.10 L 350.20 456.40 L 352.70 454.30 L 354.40 451.40 L 355.00 448.90 L 355.00 446.30 L 353.80 443.20 L 351.30 440.60 L 349.80 439.80 L 346.20 439.10 L 342.60 439.00 L 285.80 439.20 Z" fill="#feefd8" fill-rule="nonzero" node-id="57" stroke="none" target-height="711.9" target-width="982.2" target-x="180.8" target-y="229.1"></path><path d="M 715.00 484.30 L 725.40 477.60 L 730.90 474.70 L 736.50 472.10 L 742.30 469.90 L 748.20 468.10 L 754.20 466.70 L 760.40 465.90 L 766.60 465.70 L 772.90 466.10 L 779.10 467.10 L 785.20 468.70 L 791.10 470.90 L 796.80 473.50 L 802.40 476.50 L 807.70 480.00 L 812.70 483.80 L 817.50 487.90 L 824.00 494.30 L 830.10 501.10 L 835.70 508.20 L 839.70 513.90 L 846.60 525.70 L 849.50 531.90 L 852.40 539.60 L 853.40 543.60 L 854.60 551.80 L 854.80 612.10 L 855.00 614.30 L 855.80 616.20 L 858.50 619.70 L 861.90 622.40 L 864.00 623.60 L 868.70 624.70 L 876.00 625.00 L 873.30 641.50 L 870.00 657.90 L 866.10 674.30 L 862.80 686.50 L 859.20 698.50 L 855.10 710.40 L 850.70 722.10 L 845.80 733.70 L 840.50 745.10 L 834.70 756.20 L 828.40 767.20 L 822.90 775.90 L 810.80 792.80 L 804.30 800.80 L 797.40 808.50 L 790.10 815.90 L 782.40 822.80 L 774.40 829.30 L 765.90 835.30 L 763.30 836.80 L 759.70 836.90 L 740.60 833.50 L 728.00 831.90 L 715.40 830.70 L 690.00 829.30 L 664.60 829.50 L 651.90 830.10 L 635.10 831.50 L 618.50 833.50 L 596.40 837.30 L 585.40 839.80 L 576.40 833.60 L 567.70 826.90 L 559.40 819.90 L 551.50 812.40 L 543.90 804.50 L 536.70 796.30 L 529.90 787.70 L 523.50 778.80 L 517.50 769.70 L 511.90 760.30 L 506.70 750.70 L 501.90 740.90 L 495.80 727.00 L 490.30 712.90 L 485.30 698.60 L 480.80 684.20 L 476.90 669.50 L 473.60 654.80 L 470.70 639.90 L 468.50 624.90 L 474.10 624.60 L 476.90 624.20 L 481.10 622.50 L 482.60 621.40 L 485.20 618.60 L 486.70 615.30 L 487.20 609.70 L 486.80 592.00 L 486.60 556.00 L 486.60 544.70 L 487.10 533.40 L 487.70 525.90 L 489.90 511.10 L 491.60 503.80 L 493.70 496.60 L 496.40 489.50 L 510.20 487.60 L 528.40 485.70 L 537.10 485.90 L 545.70 487.50 L 549.80 488.80 L 556.40 491.60 L 562.80 494.80 L 587.40 509.40 L 593.70 512.80 L 606.80 518.60 L 613.70 520.80 L 620.70 522.40 L 627.80 523.50 L 635.00 523.90 L 642.10 523.80 L 652.80 522.20 L 658.00 520.90 L 663.10 519.10 L 672.70 514.90 L 683.70 508.00 L 708.60 488.80 L 715.00 484.30 Z M 736.60 566.00 L 733.40 567.40 L 731.30 569.80 L 730.20 572.80 L 730.00 575.30 L 730.40 577.80 L 731.70 580.70 L 734.00 582.90 L 735.50 583.60 L 737.30 583.90 L 746.50 584.00 L 755.60 584.60 L 764.80 585.60 L 773.80 587.00 L 782.80 588.90 L 793.50 591.50 L 795.20 591.60 L 798.60 590.70 L 801.40 588.70 L 803.20 585.70 L 803.60 584.00 L 803.80 582.40 L 803.40 579.50 L 802.40 577.50 L 800.90 575.80 L 799.10 574.50 L 787.10 571.30 L 777.10 569.30 L 767.00 567.60 L 756.90 566.50 L 746.70 566.00 L 736.60 566.00 Z M 584.10 567.00 L 575.00 568.00 L 556.90 571.30 L 548.00 573.40 L 544.70 574.50 L 543.10 575.40 L 540.70 578.00 L 540.00 579.60 L 539.60 581.40 L 539.90 585.00 L 541.40 588.20 L 542.70 589.50 L 545.70 591.20 L 548.80 591.60 L 551.10 591.30 L 567.90 587.40 L 575.20 586.20 L 586.20 584.90 L 597.30 584.20 L 603.90 584.20 L 606.10 583.90 L 608.60 582.80 L 610.90 580.50 L 611.70 579.00 L 612.30 577.40 L 612.50 574.90 L 612.20 572.40 L 611.60 570.80 L 609.80 568.10 L 608.50 567.10 L 605.20 566.10 L 599.90 566.00 L 584.10 567.00 Z M 665.70 626.60 L 665.60 720.10 L 665.70 721.80 L 666.70 724.80 L 668.10 726.80 L 670.00 728.30 L 673.00 729.40 L 712.80 728.20 L 716.10 727.60 L 717.60 726.80 L 720.00 724.30 L 721.20 721.10 L 721.30 718.50 L 720.80 716.00 L 720.10 714.40 L 718.00 711.90 L 715.10 710.40 L 713.20 710.10 L 683.80 711.10 L 684.10 690.60 L 683.90 626.60 L 683.30 624.00 L 681.50 621.00 L 678.70 618.80 L 675.60 617.90 L 673.20 618.10 L 670.80 618.80 L 668.80 620.10 L 667.10 621.90 L 666.30 623.30 L 665.70 626.60 Z M 793.80 633.90 L 791.90 635.30 L 784.90 641.60 L 778.80 645.00 L 774.50 646.70 L 770.00 648.00 L 765.40 648.80 L 760.80 649.30 L 756.20 649.30 L 751.50 648.90 L 747.00 648.10 L 742.50 646.90 L 738.10 645.20 L 734.00 643.10 L 730.10 640.60 L 724.20 636.00 L 722.20 634.80 L 719.10 634.30 L 717.40 634.60 L 715.60 635.30 L 714.10 636.30 L 712.90 637.70 L 711.50 641.10 L 711.50 644.90 L 712.00 646.60 L 713.00 648.30 L 716.20 651.80 L 719.90 654.90 L 723.90 657.60 L 728.10 659.90 L 734.10 662.40 L 740.20 664.30 L 746.50 665.70 L 752.90 666.40 L 759.30 666.70 L 765.70 666.30 L 772.10 665.40 L 778.30 663.90 L 784.40 661.80 L 792.50 657.70 L 796.20 655.10 L 799.70 652.20 L 803.40 647.60 L 804.90 644.90 L 805.30 643.20 L 805.20 640.00 L 804.30 637.70 L 802.80 635.70 L 800.20 633.80 L 797.10 633.10 L 793.80 633.90 Z M 539.20 636.60 L 536.40 638.00 L 535.40 639.10 L 534.20 641.00 L 533.50 643.30 L 533.30 645.60 L 533.70 647.90 L 534.30 649.30 L 536.30 651.70 L 540.70 655.30 L 545.30 658.50 L 550.20 661.30 L 555.30 663.80 L 560.50 665.90 L 565.90 667.50 L 571.40 668.70 L 577.00 669.30 L 588.30 669.30 L 593.90 668.60 L 599.50 667.50 L 604.90 666.00 L 610.10 664.00 L 615.20 661.50 L 620.00 658.60 L 624.50 655.20 L 628.70 651.40 L 630.50 648.80 L 630.90 647.40 L 631.00 645.10 L 630.60 642.80 L 629.60 640.70 L 628.20 639.00 L 627.00 638.00 L 624.10 637.00 L 620.50 636.90 L 616.70 638.80 L 610.50 643.70 L 606.10 646.40 L 601.40 648.60 L 596.60 650.20 L 591.50 651.40 L 586.50 652.00 L 581.30 652.10 L 576.20 651.70 L 571.20 650.70 L 566.20 649.30 L 561.40 647.40 L 556.90 645.00 L 546.50 637.40 L 544.20 636.40 L 542.70 636.10 L 539.20 636.60 Z M 792.50 670.00 L 788.80 670.80 L 785.30 672.10 L 782.00 673.80 L 778.90 675.80 L 776.00 678.20 L 773.40 680.90 L 771.10 683.90 L 769.20 687.00 L 767.60 690.40 L 766.50 693.90 L 765.80 697.60 L 765.50 701.30 L 765.40 705.10 L 765.80 708.70 L 766.60 712.30 L 767.90 715.80 L 769.50 719.10 L 773.70 725.20 L 776.20 727.80 L 779.10 730.20 L 782.20 732.20 L 785.50 733.80 L 792.30 736.00 L 799.10 736.70 L 802.60 736.50 L 807.10 735.60 L 811.40 734.10 L 815.50 732.10 L 821.10 728.10 L 825.70 722.90 L 827.90 719.60 L 829.60 716.00 L 830.90 712.20 L 831.70 708.30 L 832.00 704.40 L 831.90 700.40 L 831.40 696.50 L 830.40 692.60 L 828.90 688.90 L 827.10 685.40 L 824.80 682.20 L 822.00 679.30 L 816.50 674.80 L 810.10 671.60 L 803.20 669.80 L 796.10 669.60 L 792.50 670.00 Z M 538.90 670.90 L 531.80 673.50 L 528.50 675.40 L 525.50 677.60 L 522.70 680.10 L 517.90 686.40 L 516.10 690.10 L 514.70 694.00 L 513.80 698.00 L 513.40 702.10 L 513.50 706.20 L 514.10 710.40 L 515.10 714.30 L 516.60 718.20 L 518.60 721.80 L 521.00 725.10 L 523.90 728.10 L 527.00 730.70 L 530.30 732.80 L 533.90 734.50 L 537.70 735.80 L 541.60 736.60 L 545.60 737.00 L 549.60 736.90 L 553.50 736.30 L 557.40 735.20 L 561.40 733.50 L 565.10 731.40 L 568.60 728.70 L 571.60 725.60 L 574.20 722.20 L 576.50 718.40 L 578.20 714.40 L 579.40 710.30 L 580.10 706.00 L 580.20 701.70 L 579.60 697.50 L 578.40 693.20 L 576.90 689.30 L 574.90 685.70 L 572.50 682.30 L 569.60 679.20 L 566.50 676.60 L 563.00 674.30 L 559.30 672.40 L 555.40 671.10 L 551.30 670.20 L 547.20 669.80 L 543.10 670.10 L 538.90 670.90 Z M 742.00 742.10 L 738.80 744.10 L 732.30 750.50 L 728.40 753.80 L 719.80 759.70 L 713.60 762.90 L 707.20 765.60 L 700.60 767.90 L 693.80 769.60 L 687.00 770.80 L 680.10 771.60 L 673.80 771.70 L 667.60 771.50 L 661.40 770.80 L 655.20 769.70 L 643.20 766.30 L 637.40 764.00 L 626.10 758.50 L 615.60 751.60 L 607.60 744.90 L 604.10 742.70 L 602.20 742.10 L 598.20 742.50 L 595.30 744.00 L 593.30 746.60 L 592.60 748.10 L 592.10 751.40 L 592.80 754.70 L 594.80 757.40 L 600.10 762.10 L 605.60 766.40 L 611.30 770.40 L 617.30 774.10 L 623.50 777.50 L 629.90 780.40 L 636.40 783.00 L 643.10 785.20 L 649.90 786.90 L 656.80 788.30 L 663.70 789.20 L 677.20 789.60 L 689.90 788.60 L 696.20 787.50 L 702.50 786.10 L 714.60 782.10 L 720.50 779.60 L 726.20 776.70 L 731.70 773.40 L 736.90 769.80 L 742.00 765.80 L 748.40 760.20 L 751.90 755.80 L 753.10 753.20 L 753.40 751.60 L 753.10 748.50 L 752.20 746.30 L 750.70 744.40 L 748.90 743.00 L 746.70 742.10 L 745.20 741.80 L 742.00 742.10 Z" fill="#feefd8" fill-rule="nonzero" node-id="59" stroke="none" target-height="374.09998" target-width="407.5" target-x="468.5" target-y="465.7"></path><path d="M 660.70 939.70 L 727.60 951.00 L 739.30 953.40 L 745.00 955.10 L 750.60 957.40 L 756.30 960.30 L 761.60 963.80 L 766.60 967.70 L 771.40 972.00 L 780.00 981.30 L 782.80 984.90 L 783.90 987.70 L 783.70 1060.70 L 769.90 1064.00 L 756.10 1066.80 L 742.10 1069.00 L 714.00 1072.20 L 681.40 1074.40 L 675.20 1074.30 L 663.20 1073.00 L 664.90 1068.30 L 670.30 1066.90 L 686.60 1063.60 L 688.50 1062.90 L 690.10 1061.90 L 691.50 1060.40 L 692.50 1058.70 L 693.50 1055.00 L 693.40 1053.00 L 692.90 1051.20 L 691.90 1049.40 L 689.70 1047.50 L 686.40 1046.40 L 684.20 1046.20 L 679.90 1046.70 L 671.30 1048.20 L 654.30 1052.30 L 645.80 1054.90 L 629.40 1060.90 L 629.40 1049.60 L 640.80 1045.60 L 652.40 1042.20 L 660.20 1040.30 L 668.00 1038.70 L 679.50 1036.90 L 683.00 1035.90 L 684.50 1035.00 L 687.00 1032.40 L 687.80 1030.90 L 688.30 1027.40 L 687.40 1023.90 L 686.60 1022.40 L 685.40 1021.10 L 682.30 1019.30 L 678.70 1019.00 L 662.10 1021.80 L 651.10 1024.20 L 640.20 1027.20 L 629.50 1030.70 L 629.30 1019.70 L 640.50 1016.40 L 651.80 1013.60 L 676.60 1008.90 L 678.40 1008.00 L 680.00 1006.70 L 681.20 1005.10 L 682.00 1003.40 L 682.50 999.70 L 681.60 996.50 L 679.50 993.90 L 676.70 992.20 L 673.40 991.90 L 662.20 993.50 L 651.10 995.60 L 640.00 998.10 L 629.20 1001.20 L 629.30 993.40 L 639.00 989.00 L 648.80 985.20 L 658.90 981.90 L 669.10 979.10 L 679.40 976.70 L 689.90 974.70 L 700.40 973.20 L 723.30 971.00 L 725.00 970.60 L 728.00 968.80 L 729.20 967.40 L 730.60 963.60 L 730.60 961.40 L 730.00 959.20 L 728.90 957.20 L 727.50 955.50 L 725.70 954.20 L 722.90 953.30 L 713.50 953.60 L 705.70 954.40 L 674.70 959.30 L 671.20 957.10 L 668.00 954.30 L 664.50 950.00 L 661.90 945.10 L 660.70 939.70 Z" fill="#feefd8" fill-rule="nonzero" node-id="61" stroke="none" target-height="134.70001" target-width="154.70001" target-x="629.2" target-y="939.7"></path><path d="M 680.00 249.10 L 688.60 248.20 L 697.30 247.70 L 706.00 247.70 L 714.70 248.20 L 723.40 249.20 L 732.00 250.60 L 740.50 252.60 L 748.70 255.10 L 756.90 258.20 L 768.50 263.90 L 779.50 271.00 L 784.50 274.90 L 789.20 279.10 L 793.60 283.50 L 797.70 288.20 L 802.70 294.90 L 807.30 301.80 L 811.50 309.10 L 815.20 316.60 L 818.50 324.30 L 821.30 332.10 L 826.50 324.80 L 829.40 321.40 L 834.90 316.40 L 840.00 313.40 L 843.10 312.30 L 846.40 311.80 L 849.70 312.00 L 852.90 312.70 L 856.00 313.90 L 858.80 315.60 L 861.30 317.70 L 865.70 322.50 L 868.50 326.40 L 871.00 330.70 L 875.00 339.60 L 878.30 348.70 L 881.00 358.00 L 883.30 367.40 L 885.00 377.00 L 886.10 386.70 L 886.90 396.30 L 887.10 406.00 L 886.90 415.70 L 891.20 418.30 L 899.20 424.50 L 902.80 428.00 L 909.20 435.80 L 911.90 440.10 L 914.30 444.50 L 916.30 449.20 L 918.50 455.60 L 920.10 462.20 L 921.20 468.90 L 921.80 475.60 L 922.00 482.40 L 921.70 489.20 L 919.90 502.70 L 915.30 520.70 L 914.90 523.60 L 914.80 576.60 L 992.00 576.60 L 997.20 576.90 L 1007.40 578.50 L 1012.40 579.80 L 1018.90 582.20 L 1025.10 585.00 L 1031.10 588.50 L 1036.80 592.50 L 1042.00 596.90 L 1046.80 601.80 L 1050.10 605.80 L 1055.80 614.40 L 1060.30 624.10 L 1062.00 629.20 L 1064.30 639.80 L 1065.10 650.60 L 1064.90 833.00 L 1075.70 842.50 L 1086.20 852.40 L 1096.40 862.50 L 1116.10 883.40 L 1139.60 910.70 L 1153.20 927.50 L 1163.50 941.00 L 1183.30 968.80 L 1191.40 981.40 L 1195.10 988.00 L 1198.40 994.80 L 1200.90 1001.60 L 1202.90 1008.60 L 1204.30 1015.70 L 1205.10 1023.00 L 1205.30 1030.20 L 1204.90 1037.50 L 1203.90 1044.70 L 1202.40 1051.80 L 1200.30 1058.80 L 1198.00 1064.60 L 1195.30 1070.30 L 1192.10 1075.60 L 1188.50 1080.80 L 1184.60 1085.70 L 1180.30 1090.20 L 1175.70 1094.50 L 1170.80 1098.40 L 1165.60 1101.90 L 1160.20 1105.00 L 1154.60 1107.70 L 1148.70 1110.00 L 1142.70 1111.80 L 1136.60 1113.10 L 1130.40 1114.00 L 1124.10 1114.30 L 798.60 1114.50 L 796.60 1114.30 L 794.80 1113.60 L 791.60 1111.10 L 788.80 1108.20 L 785.90 1109.60 L 782.70 1110.60 L 776.20 1111.30 L 775.80 1117.00 L 775.10 1118.70 L 773.60 1120.60 L 771.70 1122.00 L 767.50 1124.20 L 756.30 1128.10 L 749.40 1129.80 L 742.50 1131.00 L 735.40 1131.80 L 728.30 1132.10 L 714.20 1131.80 L 707.10 1131.00 L 697.70 1129.40 L 688.50 1127.30 L 679.50 1124.70 L 671.00 1121.60 L 654.40 1114.50 L 642.30 1108.50 L 630.40 1102.20 L 629.80 1106.30 L 627.80 1110.10 L 624.80 1113.00 L 622.90 1114.00 L 620.90 1114.50 L 257.30 1114.50 L 250.20 1114.30 L 243.20 1113.60 L 236.20 1112.30 L 230.40 1110.80 L 224.90 1108.90 L 219.40 1106.60 L 214.20 1103.80 L 209.10 1100.70 L 204.30 1097.30 L 199.80 1093.50 L 195.50 1089.40 L 191.50 1085.00 L 187.90 1080.40 L 184.60 1075.50 L 181.70 1070.30 L 178.90 1064.70 L 176.60 1059.00 L 174.80 1053.10 L 173.40 1047.00 L 172.40 1040.90 L 171.80 1034.70 L 171.60 1028.50 L 171.80 1022.30 L 173.40 1010.00 L 176.60 998.00 L 179.30 991.20 L 185.80 978.10 L 191.30 968.60 L 209.40 941.00 L 219.90 926.20 L 230.70 911.60 L 241.90 897.20 L 253.40 883.20 L 265.30 869.50 L 277.50 856.00 L 277.50 652.00 L 278.30 640.80 L 279.30 635.20 L 280.60 629.80 L 282.40 624.40 L 284.50 619.20 L 286.90 614.60 L 292.60 606.00 L 295.90 602.00 L 300.70 597.10 L 305.90 592.70 L 311.60 588.70 L 317.50 585.20 L 323.70 582.30 L 330.20 579.90 L 335.20 578.60 L 345.40 576.90 L 350.60 576.60 L 399.90 576.50 L 405.00 576.30 L 425.30 574.10 L 430.30 573.80 L 430.50 525.40 L 431.40 511.40 L 433.20 500.30 L 409.30 504.80 L 406.40 505.00 L 403.60 504.80 L 400.70 504.10 L 398.00 503.00 L 395.60 501.50 L 393.40 499.70 L 391.50 497.50 L 390.10 495.00 L 388.40 489.90 L 388.20 487.60 L 388.30 485.20 L 388.90 481.70 L 390.00 478.30 L 393.20 471.90 L 400.70 460.90 L 404.80 455.60 L 411.40 448.20 L 418.40 441.10 L 431.60 429.30 L 438.60 423.80 L 445.80 418.70 L 453.30 413.90 L 461.10 409.60 L 453.90 402.50 L 447.20 395.00 L 440.90 387.10 L 435.00 379.00 L 429.60 370.50 L 424.60 361.70 L 420.10 352.70 L 416.00 343.50 L 411.40 330.90 L 410.80 327.60 L 410.80 325.40 L 411.10 323.20 L 413.10 318.60 L 414.70 316.50 L 416.60 314.60 L 418.70 313.10 L 421.10 311.80 L 423.60 311.00 L 426.30 310.50 L 428.90 310.50 L 457.00 317.00 L 477.00 320.00 L 488.60 321.00 L 500.10 321.70 L 511.70 321.90 L 523.30 321.60 L 534.90 320.80 L 546.40 319.50 L 557.80 317.70 L 569.20 315.40 L 598.30 307.50 L 608.10 305.40 L 619.50 303.30 L 631.10 301.80 L 642.70 300.60 L 654.40 299.90 L 666.00 299.80 L 677.60 300.20 L 689.30 301.20 L 700.80 302.80 L 712.20 305.10 L 707.10 299.30 L 701.60 293.80 L 689.60 284.00 L 674.80 273.50 L 671.10 269.80 L 669.70 267.60 L 668.80 265.20 L 668.50 262.60 L 668.50 260.30 L 669.70 256.20 L 670.80 254.30 L 673.80 251.20 L 675.70 250.10 L 677.80 249.40 L 680.00 249.10 Z M 697.40 267.00 L 708.60 276.10 L 718.90 286.10 L 723.60 291.60 L 729.80 299.70 L 734.90 307.40 L 737.00 309.60 L 755.20 322.00 L 762.80 327.70 L 770.10 333.80 L 777.10 340.20 L 783.70 347.10 L 785.40 349.70 L 785.90 351.20 L 786.10 353.60 L 785.70 355.90 L 784.80 358.00 L 783.30 359.80 L 782.10 360.80 L 780.70 361.50 L 777.40 362.20 L 774.40 361.70 L 772.40 360.60 L 761.70 350.50 L 756.10 345.80 L 750.20 341.50 L 743.90 337.50 L 737.40 334.00 L 730.80 330.90 L 723.90 328.20 L 716.90 325.80 L 707.40 323.20 L 697.80 321.30 L 688.00 320.00 L 677.70 319.10 L 667.50 318.70 L 657.20 318.70 L 646.90 319.20 L 636.70 320.00 L 623.90 321.70 L 611.20 323.90 L 598.70 326.70 L 574.60 333.10 L 562.70 335.60 L 550.80 337.70 L 538.80 339.20 L 526.70 340.10 L 503.90 340.50 L 493.30 340.20 L 472.00 338.30 L 461.50 336.80 L 451.00 334.90 L 440.60 332.50 L 430.30 329.60 L 431.20 333.40 L 432.50 337.10 L 440.10 352.60 L 444.80 360.80 L 450.00 368.70 L 455.60 376.40 L 461.50 383.80 L 467.70 391.00 L 473.70 396.90 L 479.90 402.40 L 486.40 407.70 L 493.20 412.70 L 500.30 417.30 L 507.50 421.50 L 514.90 425.40 L 522.60 428.90 L 530.40 431.90 L 538.30 434.50 L 546.40 436.60 L 554.70 438.30 L 566.20 439.80 L 569.90 440.90 L 571.70 442.40 L 573.10 444.30 L 573.90 446.40 L 574.20 448.70 L 574.10 451.10 L 572.60 454.60 L 570.20 456.70 L 567.20 457.30 L 564.10 457.40 L 558.00 456.80 L 551.90 455.70 L 542.50 453.80 L 533.20 451.30 L 524.10 448.30 L 515.20 444.80 L 506.40 440.80 L 497.90 436.40 L 489.50 431.60 L 477.50 424.00 L 476.20 423.50 L 474.40 423.50 L 465.30 428.40 L 457.50 433.20 L 450.00 438.40 L 442.70 444.10 L 435.80 450.20 L 429.10 456.50 L 422.80 463.20 L 416.80 470.20 L 409.00 481.00 L 406.10 487.10 L 414.90 485.70 L 432.10 481.90 L 477.20 474.20 L 492.30 472.00 L 522.60 468.50 L 528.00 468.10 L 538.90 468.50 L 544.30 469.20 L 549.60 470.40 L 554.80 471.90 L 562.80 475.30 L 570.60 479.30 L 600.80 496.80 L 611.30 501.70 L 616.80 503.60 L 622.50 505.10 L 628.20 506.10 L 633.90 506.60 L 639.70 506.50 L 645.40 505.80 L 651.10 504.50 L 655.20 503.30 L 662.70 500.10 L 668.00 497.00 L 673.20 493.50 L 700.10 472.70 L 707.60 467.50 L 723.50 458.30 L 730.10 455.40 L 736.80 452.90 L 743.80 450.90 L 750.80 449.40 L 758.00 448.50 L 765.10 448.20 L 770.50 448.30 L 781.20 449.70 L 786.50 451.00 L 792.70 452.90 L 798.80 455.30 L 804.70 458.00 L 810.50 461.10 L 816.10 464.50 L 821.40 468.30 L 826.40 472.50 L 836.50 482.30 L 846.50 493.50 L 851.10 499.50 L 855.40 505.80 L 859.30 512.20 L 862.80 518.90 L 865.90 525.70 L 868.60 532.80 L 870.20 538.40 L 871.40 544.00 L 872.20 549.60 L 872.80 558.20 L 873.00 602.00 L 873.20 607.90 L 896.80 607.60 L 896.90 519.80 L 897.70 515.70 L 901.10 503.60 L 903.00 493.40 L 903.80 481.00 L 903.70 474.80 L 903.00 468.70 L 901.80 462.60 L 900.20 457.00 L 898.00 451.70 L 896.20 448.20 L 891.70 442.00 L 886.20 436.60 L 881.10 433.20 L 872.60 429.20 L 870.70 428.00 L 869.50 426.80 L 868.80 425.30 L 868.30 422.10 L 869.10 412.20 L 869.10 399.00 L 868.70 392.40 L 867.50 382.30 L 865.90 372.30 L 864.50 365.70 L 860.80 352.70 L 858.40 346.40 L 855.60 340.20 L 852.40 334.30 L 850.70 332.00 L 848.40 330.40 L 846.80 330.50 L 845.90 331.20 L 840.10 338.20 L 834.50 348.10 L 830.50 357.10 L 827.50 365.90 L 824.70 371.50 L 823.60 372.70 L 820.90 374.20 L 818.50 374.50 L 816.10 374.30 L 813.90 373.50 L 812.00 372.10 L 810.30 369.60 L 807.00 350.20 L 804.80 341.40 L 802.80 334.80 L 797.80 322.30 L 794.80 316.20 L 791.40 310.40 L 787.70 304.80 L 783.50 299.50 L 779.00 294.40 L 774.10 289.80 L 768.90 285.70 L 763.40 282.00 L 757.70 278.80 L 751.70 276.00 L 745.50 273.50 L 739.20 271.50 L 726.30 268.50 L 711.90 266.50 L 702.30 266.40 L 697.40 267.00 Z M 715.00 484.30 L 708.60 488.80 L 683.70 508.00 L 672.70 514.90 L 663.10 519.10 L 658.00 520.90 L 652.80 522.20 L 642.10 523.80 L 635.00 523.90 L 627.80 523.50 L 620.70 522.40 L 613.70 520.80 L 606.80 518.60 L 593.70 512.80 L 587.40 509.40 L 562.80 494.80 L 556.40 491.60 L 549.80 488.80 L 545.70 487.50 L 537.10 485.90 L 528.40 485.70 L 510.20 487.60 L 496.40 489.50 L 493.70 496.60 L 491.60 503.80 L 489.90 511.10 L 487.70 525.90 L 487.10 533.40 L 486.60 544.70 L 486.60 556.00 L 486.80 592.00 L 487.20 609.70 L 486.70 615.30 L 485.20 618.60 L 482.60 621.40 L 481.10 622.50 L 476.90 624.20 L 474.10 624.60 L 468.50 624.90 L 470.70 639.90 L 473.60 654.80 L 476.90 669.50 L 480.80 684.20 L 485.30 698.60 L 490.30 712.90 L 495.80 727.00 L 501.90 740.90 L 506.70 750.70 L 511.90 760.30 L 517.50 769.70 L 523.50 778.80 L 529.90 787.70 L 536.70 796.30 L 543.90 804.50 L 551.50 812.40 L 559.40 819.90 L 567.70 826.90 L 576.40 833.60 L 585.40 839.80 L 607.40 835.20 L 618.50 833.50 L 635.10 831.50 L 651.90 830.10 L 677.30 829.20 L 702.70 829.80 L 715.40 830.70 L 728.00 831.90 L 740.60 833.50 L 759.70 836.90 L 761.90 837.00 L 764.60 836.20 L 774.40 829.30 L 782.40 822.80 L 790.10 815.90 L 797.40 808.50 L 804.30 800.80 L 810.80 792.80 L 822.90 775.90 L 828.40 767.20 L 834.70 756.20 L 840.50 745.10 L 845.80 733.70 L 850.70 722.10 L 855.10 710.40 L 859.20 698.50 L 862.80 686.50 L 866.10 674.30 L 870.00 657.90 L 873.30 641.50 L 876.00 625.00 L 868.70 624.70 L 864.00 623.60 L 861.90 622.40 L 858.40 619.70 L 855.80 616.20 L 855.00 614.30 L 854.80 612.10 L 854.60 551.80 L 853.40 543.60 L 852.40 539.60 L 849.50 531.90 L 846.60 525.70 L 839.70 513.90 L 835.70 508.20 L 830.10 501.10 L 824.00 494.30 L 817.50 487.90 L 812.70 483.80 L 807.70 480.00 L 802.40 476.50 L 796.80 473.50 L 791.10 470.90 L 785.20 468.70 L 779.10 467.10 L 772.90 466.10 L 766.60 465.70 L 760.40 465.90 L 754.20 466.70 L 748.20 468.10 L 742.30 469.90 L 736.50 472.10 L 730.90 474.70 L 725.40 477.60 L 715.00 484.30 Z M 306.20 635.60 L 304.40 642.30 L 303.60 651.00 L 303.50 830.40 L 318.50 816.30 L 338.20 799.90 L 357.40 785.00 L 378.70 769.30 L 376.60 753.60 L 375.00 737.60 L 374.30 726.90 L 374.10 705.60 L 374.60 694.90 L 375.60 684.30 L 377.20 673.80 L 380.60 658.30 L 383.00 650.60 L 385.70 643.00 L 389.10 635.10 L 390.60 632.60 L 392.30 630.40 L 394.40 628.70 L 397.90 627.40 L 400.00 627.20 L 403.30 628.10 L 406.50 629.40 L 418.80 635.60 L 426.60 625.90 L 432.60 620.30 L 436.10 618.00 L 433.90 615.90 L 432.30 613.60 L 431.20 611.00 L 430.40 608.20 L 429.90 602.40 L 352.10 602.40 L 347.00 602.70 L 342.10 603.50 L 337.20 604.80 L 332.60 606.70 L 328.10 609.00 L 323.90 611.80 L 320.00 614.90 L 316.40 618.40 L 313.20 622.30 L 310.40 626.50 L 308.10 630.90 L 306.20 635.60 Z M 914.90 602.40 L 914.90 608.20 L 914.70 611.10 L 914.00 613.80 L 912.30 617.10 L 910.90 618.70 L 914.70 621.90 L 918.10 625.40 L 924.00 633.30 L 930.90 632.00 L 938.00 632.20 L 944.70 634.00 L 947.90 635.50 L 950.90 637.40 L 953.70 639.70 L 957.40 643.40 L 960.60 647.50 L 963.50 651.90 L 965.90 656.50 L 969.90 666.20 L 972.20 673.80 L 973.90 681.50 L 975.20 690.60 L 976.00 699.80 L 976.40 709.00 L 976.10 727.50 L 975.60 736.70 L 972.80 764.30 L 974.40 765.70 L 980.20 769.10 L 995.20 778.80 L 1010.00 788.90 L 1029.20 803.10 L 1038.40 810.70 L 1038.80 790.00 L 1038.90 652.10 L 1038.70 646.40 L 1037.80 640.90 L 1036.40 635.50 L 1034.90 631.50 L 1031.00 624.10 L 1028.60 620.60 L 1025.00 616.60 L 1020.90 613.00 L 1016.50 609.90 L 1011.70 607.30 L 1006.70 605.20 L 1001.50 603.70 L 996.20 602.70 L 990.80 602.40 L 914.90 602.40 Z M 875.10 706.90 L 879.90 706.80 L 884.60 706.00 L 889.20 704.70 L 893.60 702.70 L 897.60 700.30 L 901.40 697.40 L 904.80 694.10 L 907.80 690.40 L 912.20 682.50 L 913.60 678.60 L 914.60 674.60 L 915.30 670.50 L 915.50 666.40 L 914.80 658.20 L 912.60 650.10 L 909.00 642.70 L 906.70 639.30 L 904.10 636.10 L 901.10 633.20 L 897.80 630.70 L 894.20 628.50 L 889.30 655.00 L 886.50 668.20 L 883.20 681.20 L 879.40 694.20 L 875.10 706.90 Z M 430.70 656.10 L 430.00 660.10 L 429.60 664.10 L 429.60 668.10 L 430.00 672.20 L 430.80 676.10 L 433.40 683.70 L 437.50 690.80 L 442.60 696.90 L 445.70 699.60 L 449.30 702.30 L 453.10 704.50 L 457.20 706.20 L 461.40 707.60 L 470.10 709.40 L 461.20 680.40 L 458.70 670.60 L 454.20 650.40 L 450.20 630.10 L 447.00 631.90 L 444.00 634.10 L 438.80 639.40 L 434.80 645.70 L 433.10 649.10 L 430.70 656.10 Z M 395.40 757.10 L 398.10 781.80 L 400.20 806.50 L 401.20 823.00 L 402.10 856.00 L 401.80 873.70 L 401.00 891.30 L 399.50 908.90 L 397.50 926.50 L 395.00 944.00 L 391.90 961.40 L 390.00 967.50 L 394.80 967.70 L 396.10 955.00 L 397.30 948.70 L 398.80 942.50 L 400.70 936.50 L 403.00 930.50 L 405.70 924.80 L 413.10 912.80 L 413.20 911.40 L 412.00 901.60 L 411.70 894.40 L 411.80 887.20 L 412.30 880.10 L 413.80 871.50 L 414.90 867.20 L 417.70 860.60 L 421.10 855.80 L 425.30 852.10 L 430.40 849.60 L 435.90 848.70 L 438.70 848.80 L 441.50 849.40 L 444.20 850.40 L 448.00 852.50 L 451.60 854.90 L 454.90 857.70 L 459.40 862.40 L 463.60 867.50 L 471.10 878.10 L 482.10 878.40 L 485.80 878.00 L 490.40 876.50 L 503.80 869.20 L 515.20 863.50 L 526.90 858.30 L 538.70 853.60 L 550.80 849.40 L 563.00 845.70 L 555.40 840.00 L 548.20 833.90 L 541.30 827.60 L 534.60 820.90 L 522.10 806.90 L 510.80 791.90 L 503.80 781.40 L 497.30 770.70 L 491.20 759.60 L 485.60 748.30 L 480.50 736.90 L 475.80 725.30 L 472.70 726.70 L 471.00 727.10 L 469.30 727.20 L 459.70 725.60 L 450.40 722.60 L 441.70 718.20 L 433.80 712.50 L 430.10 709.30 L 423.80 702.00 L 421.00 697.90 L 418.30 693.20 L 416.10 688.30 L 414.40 683.20 L 413.00 678.00 L 412.20 672.70 L 411.70 667.30 L 411.70 661.90 L 412.20 656.60 L 413.00 651.30 L 403.70 646.80 L 400.60 655.70 L 398.00 664.60 L 396.00 673.60 L 394.40 682.80 L 393.30 692.00 L 392.70 701.30 L 392.50 720.00 L 393.90 743.30 L 395.40 757.10 Z M 931.30 649.10 L 932.70 654.90 L 933.40 660.80 L 933.60 666.80 L 933.10 672.70 L 932.10 678.50 L 930.60 684.30 L 928.40 689.90 L 925.80 695.20 L 922.70 700.20 L 919.00 704.90 L 914.90 709.20 L 910.30 713.10 L 906.40 715.80 L 902.30 718.30 L 897.90 720.30 L 893.40 721.90 L 888.80 723.10 L 884.10 723.90 L 879.30 724.30 L 874.50 724.30 L 869.70 723.90 L 860.00 746.40 L 854.60 757.50 L 848.80 768.40 L 842.60 779.00 L 836.00 789.30 L 828.90 799.40 L 821.40 809.00 L 813.30 818.30 L 807.00 825.00 L 800.40 831.30 L 793.40 837.40 L 786.20 843.20 L 796.30 845.90 L 816.20 852.50 L 826.00 856.30 L 845.00 865.00 L 863.40 875.10 L 872.60 880.80 L 881.40 887.00 L 890.00 893.50 L 898.30 900.50 L 906.30 907.80 L 913.90 915.50 L 921.10 923.60 L 927.90 932.00 L 934.20 940.80 L 940.00 949.80 L 945.30 959.30 L 950.00 969.00 L 959.30 968.90 L 956.50 954.30 L 954.20 939.70 L 952.30 925.00 L 950.90 910.30 L 949.50 890.60 L 948.80 870.80 L 948.70 851.00 L 949.20 831.30 L 950.10 811.50 L 952.50 779.40 L 956.30 742.00 L 957.30 729.60 L 957.80 717.10 L 957.50 700.50 L 956.80 692.10 L 954.80 679.60 L 953.20 673.40 L 951.20 667.40 L 949.40 663.60 L 945.00 656.40 L 943.30 654.20 L 941.30 652.50 L 939.00 651.10 L 936.60 650.10 L 931.30 649.10 Z M 970.40 793.30 L 968.80 811.90 L 967.80 830.60 L 967.30 849.40 L 967.30 868.10 L 968.00 885.40 L 969.10 902.70 L 972.50 937.10 L 979.80 942.30 L 993.80 953.60 L 1000.40 959.70 L 1006.70 966.10 L 1014.70 975.00 L 1041.30 974.90 L 1050.20 975.20 L 1052.10 976.50 L 1053.30 977.90 L 1054.00 979.60 L 1054.30 981.50 L 1053.60 985.40 L 1050.30 987.30 L 1045.60 988.20 L 803.50 987.80 L 803.40 1088.60 L 802.50 1088.60 L 807.90 1089.20 L 813.20 1089.40 L 966.00 1089.00 L 1121.00 1089.50 L 1124.20 1089.10 L 1127.40 1088.30 L 1132.00 1088.00 L 1130.80 1087.20 L 1135.00 1086.80 L 1139.00 1085.90 L 1143.00 1084.60 L 1150.60 1080.90 L 1154.10 1078.60 L 1159.10 1074.60 L 1163.60 1070.20 L 1166.90 1066.40 L 1169.90 1062.20 L 1172.50 1057.90 L 1174.60 1053.30 L 1176.40 1048.50 L 1178.70 1038.60 L 1179.20 1033.50 L 1179.30 1028.40 L 1178.40 1018.30 L 1177.30 1013.30 L 1175.70 1008.10 L 1173.60 1003.00 L 1171.10 998.10 L 1162.40 984.20 L 1149.00 965.30 L 1135.00 946.70 L 1120.60 928.50 L 1109.40 915.20 L 1097.90 902.10 L 1086.10 889.30 L 1074.00 876.70 L 1062.10 865.10 L 1049.80 853.80 L 1037.30 842.80 L 1024.50 832.10 L 1011.40 821.80 L 998.00 811.80 L 984.40 802.30 L 970.40 793.30 Z M 302.40 867.80 L 290.40 880.50 L 278.80 893.60 L 267.60 907.00 L 256.70 920.70 L 246.10 934.60 L 235.90 948.80 L 226.00 963.20 L 216.50 977.80 L 209.00 990.30 L 205.50 996.70 L 202.50 1003.30 L 199.50 1012.50 L 198.50 1017.30 L 197.80 1023.40 L 197.60 1029.60 L 197.80 1035.80 L 199.40 1044.90 L 202.40 1053.60 L 204.80 1058.70 L 207.80 1063.50 L 211.20 1068.00 L 215.00 1072.10 L 219.20 1075.80 L 223.70 1079.20 L 228.60 1082.10 L 233.70 1084.40 L 239.00 1086.30 L 249.00 1088.20 L 261.70 1088.90 L 603.80 1088.90 L 604.10 1077.00 L 603.80 999.50 L 603.40 985.60 L 602.10 986.10 L 426.70 985.90 L 331.20 986.50 L 319.80 986.10 L 317.90 984.00 L 316.60 981.60 L 316.40 980.20 L 316.60 978.80 L 317.60 976.90 L 318.90 975.30 L 321.30 974.00 L 328.70 973.60 L 346.70 973.80 L 358.60 973.40 L 361.00 970.80 L 373.10 955.70 L 375.10 951.90 L 377.60 935.20 L 379.70 918.40 L 381.50 901.50 L 382.70 884.60 L 383.40 867.70 L 383.60 850.80 L 383.40 838.10 L 381.80 812.80 L 380.50 800.20 L 366.70 810.50 L 353.20 821.20 L 340.00 832.30 L 327.10 843.80 L 314.60 855.60 L 302.40 867.80 Z M 566.40 863.10 L 569.00 867.90 L 571.00 872.90 L 572.40 878.10 L 573.40 883.40 L 574.40 894.20 L 574.60 910.50 L 579.10 916.00 L 583.30 921.70 L 587.00 927.70 L 590.30 934.00 L 593.10 940.40 L 595.50 947.10 L 597.40 953.90 L 598.90 960.80 L 599.80 967.80 L 616.90 967.70 L 622.60 968.10 L 625.00 969.20 L 627.00 971.90 L 627.90 973.70 L 634.20 970.80 L 640.70 968.40 L 653.80 964.00 L 649.40 959.10 L 646.10 953.30 L 645.00 950.30 L 643.70 943.80 L 643.90 937.20 L 645.50 932.40 L 646.80 930.30 L 650.10 926.50 L 654.30 923.70 L 656.60 922.70 L 661.50 921.70 L 664.00 921.70 L 719.30 931.00 L 735.40 934.00 L 743.30 935.80 L 751.10 938.20 L 761.10 942.30 L 770.90 948.20 L 780.30 955.70 L 793.00 968.50 L 930.70 969.00 L 926.00 960.80 L 920.80 952.80 L 915.30 945.10 L 909.50 937.60 L 903.30 930.40 L 896.80 923.50 L 889.90 917.00 L 875.00 904.60 L 867.10 898.80 L 859.00 893.30 L 850.70 888.30 L 833.40 879.20 L 815.50 871.30 L 803.20 866.80 L 790.80 862.80 L 778.20 859.30 L 765.40 856.30 L 752.70 853.80 L 739.80 851.70 L 725.30 849.90 L 710.80 848.50 L 696.30 847.70 L 681.70 847.40 L 667.10 847.50 L 652.50 848.20 L 638.00 849.40 L 623.50 851.10 L 609.00 853.30 L 594.70 856.00 L 580.50 859.30 L 566.40 863.10 Z M 434.70 866.60 L 433.40 868.40 L 432.40 870.40 L 431.20 874.70 L 429.80 885.70 L 429.60 891.30 L 429.90 899.70 L 431.50 913.90 L 431.10 917.70 L 421.90 932.40 L 417.60 941.80 L 414.60 951.90 L 413.20 959.70 L 412.20 967.50 L 581.80 967.70 L 580.90 961.70 L 579.60 955.80 L 577.90 950.00 L 575.70 944.30 L 573.10 938.90 L 570.10 933.60 L 566.60 928.70 L 558.60 919.20 L 557.50 917.40 L 556.70 915.60 L 556.50 913.40 L 556.60 894.50 L 555.50 884.20 L 553.20 876.10 L 551.40 872.50 L 549.50 870.80 L 548.10 870.40 L 546.30 871.20 L 544.70 872.30 L 542.20 875.40 L 536.70 884.00 L 528.10 902.20 L 525.90 904.30 L 523.80 905.20 L 521.60 905.50 L 518.70 904.90 L 516.10 903.20 L 514.50 900.80 L 513.10 896.70 L 489.50 895.90 L 474.20 896.20 L 464.00 896.00 L 461.80 894.70 L 459.90 892.90 L 449.00 877.90 L 444.70 872.90 L 438.90 867.30 L 436.20 866.50 L 434.70 866.60 Z M 660.70 939.70 L 661.90 945.10 L 664.50 950.00 L 668.00 954.30 L 671.20 957.10 L 674.70 959.30 L 705.70 954.40 L 713.50 953.60 L 722.90 953.30 L 725.70 954.20 L 727.50 955.50 L 728.90 957.20 L 730.00 959.20 L 730.60 961.40 L 730.60 963.60 L 730.00 965.80 L 729.20 967.40 L 728.00 968.80 L 725.00 970.60 L 723.30 971.00 L 700.40 973.20 L 689.90 974.70 L 679.40 976.70 L 669.10 979.10 L 658.90 981.90 L 648.80 985.20 L 639.00 989.00 L 629.30 993.40 L 629.20 1001.20 L 640.00 998.10 L 651.10 995.60 L 662.20 993.50 L 673.40 991.90 L 676.70 992.20 L 679.50 993.90 L 681.60 996.50 L 682.50 999.70 L 682.00 1003.40 L 681.20 1005.10 L 680.00 1006.70 L 678.40 1008.00 L 676.60 1008.90 L 651.80 1013.60 L 640.50 1016.40 L 629.30 1019.70 L 629.50 1030.70 L 640.20 1027.20 L 651.10 1024.20 L 662.10 1021.80 L 678.70 1019.00 L 682.30 1019.30 L 684.00 1020.00 L 686.60 1022.40 L 688.00 1025.60 L 688.20 1029.10 L 687.80 1030.90 L 685.90 1033.80 L 684.50 1035.00 L 683.00 1035.90 L 679.50 1036.90 L 668.00 1038.70 L 660.20 1040.30 L 652.40 1042.20 L 640.80 1045.60 L 629.40 1049.60 L 629.40 1060.90 L 645.80 1054.90 L 654.30 1052.30 L 671.30 1048.20 L 679.90 1046.70 L 684.20 1046.20 L 686.40 1046.40 L 688.50 1046.90 L 690.90 1048.30 L 691.90 1049.40 L 692.90 1051.20 L 693.40 1053.00 L 693.50 1055.00 L 693.20 1056.90 L 691.50 1060.40 L 690.10 1061.90 L 688.50 1062.90 L 686.60 1063.60 L 670.30 1066.90 L 664.90 1068.30 L 658.40 1070.20 L 645.50 1075.00 L 675.20 1074.30 L 681.40 1074.40 L 714.00 1072.20 L 742.10 1069.00 L 756.10 1066.80 L 769.90 1064.00 L 783.70 1060.70 L 783.90 987.70 L 783.50 986.30 L 781.90 983.70 L 775.80 976.50 L 771.40 972.00 L 766.60 967.70 L 761.60 963.80 L 756.30 960.30 L 750.60 957.40 L 745.00 955.10 L 739.30 953.40 L 727.60 951.00 L 660.70 939.70 Z M 977.60 964.70 L 977.00 965.90 L 977.00 966.70 L 977.50 967.20 L 978.60 967.60 L 979.20 966.30 L 979.20 965.60 L 978.70 965.00 L 977.60 964.70 Z M 729.50 1089.10 L 716.70 1090.50 L 704.00 1091.40 L 652.90 1093.40 L 661.60 1097.60 L 677.70 1104.70 L 685.10 1107.40 L 692.80 1109.70 L 700.50 1111.60 L 708.30 1112.90 L 716.20 1113.80 L 724.10 1114.20 L 732.00 1114.00 L 740.00 1113.20 L 747.80 1111.70 L 751.70 1110.60 L 755.30 1108.90 L 744.20 1107.50 L 741.60 1106.60 L 737.80 1104.00 L 736.90 1102.60 L 736.30 1101.00 L 736.10 1097.60 L 737.10 1094.20 L 739.20 1091.60 L 740.60 1090.70 L 742.20 1090.20 L 744.00 1090.00 L 766.00 1093.00 L 771.50 1093.30 L 777.10 1093.20 L 776.70 1081.30 L 753.20 1085.70 L 729.50 1089.10 Z" fill="#243e65" fill-rule="nonzero" node-id="63" stroke="none" target-height="884.39996" target-width="1033.7001" target-x="171.6" target-y="247.7"></path><path d="M 697.40 267.00 L 702.30 266.40 L 711.90 266.50 L 726.30 268.50 L 739.20 271.50 L 745.50 273.50 L 751.70 276.00 L 757.70 278.80 L 763.40 282.00 L 768.90 285.70 L 774.10 289.80 L 779.00 294.40 L 783.50 299.50 L 787.70 304.80 L 791.40 310.40 L 794.80 316.20 L 797.80 322.30 L 802.80 334.80 L 804.80 341.40 L 807.00 350.20 L 810.30 369.60 L 812.00 372.10 L 813.90 373.50 L 816.10 374.30 L 818.50 374.50 L 820.90 374.20 L 823.60 372.70 L 824.70 371.50 L 827.50 365.90 L 830.50 357.10 L 834.50 348.10 L 840.10 338.20 L 845.90 331.20 L 846.80 330.50 L 848.40 330.40 L 850.70 332.00 L 852.40 334.30 L 855.60 340.20 L 858.40 346.40 L 860.80 352.70 L 864.50 365.70 L 865.90 372.30 L 867.50 382.30 L 868.70 392.40 L 869.10 399.00 L 869.10 412.20 L 868.30 422.10 L 868.80 425.30 L 869.50 426.80 L 870.70 428.00 L 872.60 429.20 L 881.10 433.20 L 886.20 436.60 L 891.70 442.00 L 896.20 448.20 L 898.00 451.70 L 900.20 457.00 L 901.80 462.60 L 903.00 468.70 L 903.70 474.80 L 903.80 481.00 L 903.00 493.40 L 901.10 503.60 L 897.70 515.70 L 896.90 519.80 L 896.80 607.60 L 873.20 607.90 L 873.00 602.00 L 872.80 558.20 L 872.20 549.60 L 871.40 544.00 L 870.20 538.40 L 868.60 532.80 L 865.90 525.70 L 862.80 518.90 L 859.30 512.20 L 855.40 505.80 L 851.10 499.50 L 846.50 493.50 L 836.50 482.30 L 826.40 472.50 L 821.40 468.30 L 816.10 464.50 L 810.50 461.10 L 804.70 458.00 L 798.80 455.30 L 792.70 452.90 L 786.50 451.00 L 781.20 449.70 L 770.50 448.30 L 765.10 448.20 L 758.00 448.50 L 750.80 449.40 L 743.80 450.90 L 736.80 452.90 L 730.10 455.40 L 723.50 458.30 L 707.60 467.50 L 700.10 472.70 L 673.20 493.50 L 668.00 497.00 L 662.70 500.10 L 655.20 503.30 L 651.10 504.50 L 645.40 505.80 L 639.70 506.50 L 633.90 506.60 L 628.20 506.10 L 622.50 505.10 L 616.80 503.60 L 611.30 501.70 L 600.80 496.80 L 570.60 479.30 L 562.80 475.30 L 554.80 471.90 L 549.60 470.40 L 544.30 469.20 L 538.90 468.50 L 528.00 468.10 L 522.60 468.50 L 492.30 472.00 L 477.20 474.20 L 432.10 481.90 L 414.90 485.70 L 406.10 487.10 L 409.00 481.00 L 416.80 470.20 L 422.80 463.20 L 429.10 456.50 L 435.80 450.20 L 442.70 444.10 L 450.00 438.40 L 457.50 433.20 L 465.30 428.40 L 474.40 423.50 L 476.20 423.50 L 477.50 424.00 L 489.50 431.60 L 497.90 436.40 L 506.40 440.80 L 515.20 444.80 L 524.10 448.30 L 533.20 451.30 L 542.50 453.80 L 551.90 455.70 L 558.00 456.80 L 564.10 457.40 L 567.20 457.30 L 570.20 456.70 L 572.60 454.60 L 574.10 451.10 L 574.20 448.70 L 573.90 446.40 L 573.10 444.30 L 571.70 442.40 L 569.90 440.90 L 566.20 439.80 L 554.70 438.30 L 546.40 436.60 L 538.30 434.50 L 530.40 431.90 L 522.60 428.90 L 514.90 425.40 L 507.50 421.50 L 500.30 417.30 L 493.20 412.70 L 486.40 407.70 L 479.90 402.40 L 473.70 396.90 L 467.70 391.00 L 461.50 383.80 L 455.60 376.40 L 450.00 368.70 L 444.80 360.80 L 440.10 352.60 L 432.50 337.10 L 431.20 333.40 L 430.30 329.60 L 440.60 332.50 L 451.00 334.90 L 461.50 336.80 L 472.00 338.30 L 493.30 340.20 L 503.90 340.50 L 526.70 340.10 L 538.80 339.20 L 550.80 337.70 L 562.70 335.60 L 574.60 333.10 L 598.70 326.70 L 611.20 323.90 L 623.90 321.70 L 636.70 320.00 L 646.90 319.20 L 657.20 318.70 L 667.50 318.70 L 677.70 319.10 L 688.00 320.00 L 697.80 321.30 L 707.40 323.20 L 716.90 325.80 L 723.90 328.20 L 730.80 330.90 L 737.40 334.00 L 743.90 337.50 L 750.20 341.50 L 756.10 345.80 L 761.70 350.50 L 772.40 360.60 L 774.40 361.70 L 777.40 362.20 L 780.70 361.50 L 782.10 360.80 L 783.30 359.80 L 784.80 358.00 L 785.70 355.90 L 786.10 353.60 L 785.90 351.20 L 785.40 349.70 L 783.70 347.10 L 777.10 340.20 L 770.10 333.80 L 762.80 327.70 L 755.20 322.00 L 737.00 309.60 L 734.90 307.40 L 729.80 299.70 L 723.60 291.60 L 718.90 286.10 L 708.60 276.10 L 697.40 267.00 Z" fill="#4a5469" fill-rule="nonzero" node-id="65" stroke="none" target-height="341.50003" target-width="497.69998" target-x="406.1" target-y="266.4"></path><path d="M 1014.90 305.70 L 1016.70 305.10 L 1020.10 305.00 L 1023.40 306.30 L 1025.90 308.80 L 1026.80 310.30 L 1027.60 314.00 L 1027.30 315.80 L 1025.80 319.20 L 1023.30 322.00 L 995.10 348.50 L 966.90 374.90 L 963.80 377.30 L 960.20 378.70 L 958.30 378.80 L 954.60 377.70 L 953.20 376.70 L 950.90 374.00 L 949.80 370.80 L 950.10 367.40 L 950.80 365.70 L 953.60 362.40 L 956.60 359.40 L 986.50 331.20 L 1010.30 309.00 L 1012.50 307.20 L 1014.90 305.70 Z" fill="#243c63" fill-rule="nonzero" node-id="67" stroke="none" target-height="73.79999" target-width="77.79999" target-x="949.8" target-y="305"></path><path d="M 297.70 349.70 L 299.90 349.20 L 302.10 349.30 L 304.30 349.90 L 306.30 351.10 L 366.00 390.30 L 367.40 392.00 L 368.40 393.90 L 369.00 396.00 L 368.90 398.20 L 367.50 402.10 L 366.30 403.50 L 364.90 404.70 L 361.40 406.00 L 359.50 406.10 L 355.90 405.30 L 296.70 366.40 L 294.30 364.30 L 293.10 362.70 L 292.30 361.00 L 292.00 359.00 L 292.00 357.10 L 293.30 353.40 L 294.40 351.80 L 295.90 350.60 L 297.70 349.70 Z" fill="#253d68" fill-rule="nonzero" node-id="69" stroke="none" target-height="56.899994" target-width="77" target-x="292" target-y="349.2"></path><path d="M 1044.20 404.20 L 1048.60 404.00 L 1050.70 404.40 L 1052.70 405.20 L 1054.40 406.50 L 1056.60 410.20 L 1057.00 412.00 L 1057.00 413.90 L 1055.80 417.50 L 1054.60 419.10 L 1053.20 420.40 L 1051.50 421.30 L 1049.60 421.80 L 986.30 429.90 L 983.40 429.70 L 981.50 429.30 L 979.80 428.40 L 978.20 427.10 L 976.50 424.50 L 975.90 420.80 L 976.30 418.50 L 977.30 416.30 L 978.60 414.50 L 979.80 413.50 L 982.70 412.40 L 1044.20 404.20 Z" fill="#223b66" fill-rule="nonzero" node-id="71" stroke="none" target-height="25.899994" target-width="81.099976" target-x="975.9" target-y="404"></path><path d="M 285.80 439.20 L 342.60 439.00 L 348.10 439.30 L 351.30 440.60 L 352.70 441.90 L 353.80 443.20 L 355.00 446.30 L 355.00 448.90 L 354.40 451.40 L 353.70 452.90 L 351.50 455.50 L 348.60 456.90 L 287.90 457.10 L 284.70 456.60 L 283.30 455.90 L 281.40 454.50 L 279.90 452.60 L 278.90 449.60 L 278.80 448.00 L 278.90 445.90 L 279.60 444.00 L 280.70 442.30 L 282.10 440.80 L 283.80 439.80 L 285.80 439.20 Z" fill="#223b63" fill-rule="nonzero" node-id="73" stroke="none" target-height="18.100006" target-width="76.20001" target-x="278.8" target-y="439"></path><path d="M 736.60 566.00 L 746.70 566.00 L 756.90 566.50 L 767.00 567.60 L 777.10 569.30 L 787.10 571.30 L 799.10 574.50 L 800.90 575.80 L 802.40 577.50 L 803.40 579.50 L 803.80 582.40 L 803.20 585.70 L 801.40 588.70 L 798.60 590.70 L 796.90 591.30 L 793.50 591.50 L 782.80 588.90 L 773.80 587.00 L 764.80 585.60 L 755.60 584.60 L 746.50 584.00 L 737.30 583.90 L 735.50 583.60 L 734.00 582.90 L 731.70 580.70 L 730.40 577.80 L 730.00 575.30 L 730.20 572.80 L 731.30 569.80 L 733.40 567.40 L 736.60 566.00 Z" fill="#233c66" fill-rule="nonzero" node-id="75" stroke="none" target-height="25.5" target-width="73.79999" target-x="730" target-y="566"></path><path d="M 584.10 567.00 L 599.90 566.00 L 605.20 566.10 L 608.50 567.10 L 609.80 568.10 L 611.60 570.80 L 612.20 572.40 L 612.50 574.90 L 612.30 577.40 L 611.70 579.00 L 610.90 580.50 L 608.60 582.80 L 606.10 583.90 L 603.90 584.20 L 597.30 584.20 L 586.20 584.90 L 575.20 586.20 L 567.90 587.40 L 551.10 591.30 L 548.80 591.60 L 545.70 591.20 L 542.70 589.50 L 541.40 588.20 L 539.90 585.00 L 539.60 581.40 L 540.00 579.60 L 540.70 578.00 L 543.10 575.40 L 544.70 574.50 L 548.00 573.40 L 556.90 571.30 L 575.00 568.00 L 584.10 567.00 Z" fill="#223c66" fill-rule="nonzero" node-id="77" stroke="none" target-height="25.599976" target-width="72.900024" target-x="539.6" target-y="566"></path><path d="M 306.20 635.60 L 308.10 630.90 L 310.40 626.50 L 313.20 622.30 L 316.40 618.40 L 320.00 614.90 L 323.90 611.80 L 328.10 609.00 L 332.60 606.70 L 337.20 604.80 L 342.10 603.50 L 347.00 602.70 L 352.10 602.40 L 429.90 602.40 L 430.40 608.20 L 431.20 611.00 L 432.30 613.60 L 433.90 615.90 L 436.10 618.00 L 432.60 620.30 L 426.60 625.90 L 418.80 635.60 L 406.50 629.40 L 403.30 628.10 L 400.00 627.20 L 396.00 627.90 L 394.40 628.70 L 392.30 630.40 L 390.60 632.60 L 387.80 637.80 L 385.70 643.00 L 383.00 650.60 L 378.70 666.00 L 377.20 673.80 L 375.60 684.30 L 374.60 694.90 L 374.10 705.60 L 374.30 726.90 L 375.00 737.60 L 376.60 753.60 L 378.70 769.30 L 357.40 785.00 L 338.20 799.90 L 318.50 816.30 L 303.50 830.40 L 303.60 651.00 L 304.40 642.30 L 306.20 635.60 Z" fill="#fdfdfe" fill-rule="nonzero" node-id="79" stroke="none" target-height="228" target-width="132.6" target-x="303.5" target-y="602.4"></path><path d="M 914.90 602.40 L 990.80 602.40 L 996.20 602.70 L 1001.50 603.70 L 1006.70 605.20 L 1011.70 607.30 L 1016.50 609.90 L 1020.90 613.00 L 1025.00 616.60 L 1028.60 620.60 L 1031.00 624.10 L 1034.90 631.50 L 1036.40 635.50 L 1037.80 640.90 L 1038.70 646.40 L 1038.90 652.10 L 1038.80 790.00 L 1038.40 810.70 L 1029.20 803.10 L 1010.00 788.90 L 995.20 778.80 L 980.20 769.10 L 974.40 765.70 L 972.80 764.30 L 975.60 736.70 L 976.10 727.50 L 976.40 709.00 L 976.00 699.80 L 975.20 690.60 L 973.90 681.50 L 972.20 673.80 L 969.90 666.20 L 965.90 656.50 L 963.50 651.90 L 960.60 647.50 L 957.40 643.40 L 953.70 639.70 L 950.90 637.40 L 947.90 635.50 L 944.70 634.00 L 941.40 632.90 L 938.00 632.20 L 934.40 631.90 L 930.90 632.00 L 924.00 633.30 L 918.10 625.40 L 914.70 621.90 L 910.90 618.70 L 912.30 617.10 L 914.00 613.80 L 914.70 611.10 L 914.90 608.20 L 914.90 602.40 Z" fill="#fdfdfe" fill-rule="nonzero" node-id="81" stroke="none" target-height="208.29999" target-width="128" target-x="910.9" target-y="602.4"></path><path d="M 395.40 757.10 L 393.90 743.30 L 392.50 720.00 L 392.70 701.30 L 393.30 692.00 L 394.40 682.80 L 396.00 673.60 L 398.00 664.60 L 400.60 655.70 L 403.70 646.80 L 413.00 651.30 L 412.20 656.60 L 411.70 661.90 L 411.70 667.30 L 412.20 672.70 L 413.00 678.00 L 414.40 683.20 L 416.10 688.30 L 418.30 693.20 L 421.00 697.90 L 423.80 702.00 L 430.10 709.30 L 433.80 712.50 L 441.70 718.20 L 450.40 722.60 L 459.70 725.60 L 469.30 727.20 L 471.00 727.10 L 472.70 726.70 L 475.80 725.30 L 480.50 736.90 L 485.60 748.30 L 491.20 759.60 L 497.30 770.70 L 503.80 781.40 L 510.80 791.90 L 522.10 806.90 L 534.60 820.90 L 541.30 827.60 L 548.20 833.90 L 555.40 840.00 L 563.00 845.70 L 550.80 849.40 L 538.70 853.60 L 526.90 858.30 L 515.20 863.50 L 503.80 869.20 L 490.40 876.50 L 485.80 878.00 L 482.10 878.40 L 471.10 878.10 L 463.60 867.50 L 459.40 862.40 L 454.90 857.70 L 451.60 854.90 L 448.00 852.50 L 444.20 850.40 L 441.50 849.40 L 438.70 848.80 L 435.90 848.70 L 430.40 849.60 L 425.30 852.10 L 421.10 855.80 L 417.70 860.60 L 414.90 867.20 L 413.80 871.50 L 412.30 880.10 L 411.80 887.20 L 411.70 894.40 L 412.00 901.60 L 413.20 911.40 L 413.10 912.80 L 405.70 924.80 L 403.00 930.50 L 400.70 936.50 L 398.80 942.50 L 397.30 948.70 L 396.10 955.00 L 394.80 967.70 L 390.00 967.50 L 391.90 961.40 L 395.00 944.00 L 397.50 926.50 L 399.50 908.90 L 401.00 891.30 L 401.80 873.70 L 402.10 856.00 L 401.20 823.00 L 400.20 806.50 L 398.10 781.80 L 395.40 757.10 Z" fill="#fdfdfe" fill-rule="nonzero" node-id="83" stroke="none" target-height="320.90002" target-width="173" target-x="390" target-y="646.8"></path><path d="M 931.30 649.10 L 936.60 650.10 L 939.00 651.10 L 941.30 652.50 L 943.30 654.20 L 947.40 659.90 L 951.20 667.40 L 953.20 673.40 L 954.80 679.60 L 956.80 692.10 L 957.90 708.80 L 957.30 729.60 L 956.30 742.00 L 952.50 779.40 L 950.10 811.50 L 949.20 831.30 L 948.70 851.00 L 948.80 870.80 L 949.50 890.60 L 950.90 910.30 L 952.30 925.00 L 954.20 939.70 L 956.50 954.30 L 959.30 968.90 L 950.00 969.00 L 945.30 959.30 L 940.00 949.80 L 934.20 940.80 L 927.90 932.00 L 921.10 923.60 L 913.90 915.50 L 906.30 907.80 L 898.30 900.50 L 890.00 893.50 L 881.40 887.00 L 872.60 880.80 L 863.40 875.10 L 854.30 869.90 L 835.60 860.50 L 816.20 852.50 L 806.30 849.00 L 786.20 843.20 L 793.40 837.40 L 800.40 831.30 L 807.00 825.00 L 813.30 818.30 L 821.40 809.00 L 828.90 799.40 L 836.00 789.30 L 842.60 779.00 L 848.80 768.40 L 854.60 757.50 L 860.00 746.40 L 869.70 723.90 L 874.50 724.30 L 879.30 724.30 L 884.10 723.90 L 888.80 723.10 L 893.40 721.90 L 897.90 720.30 L 902.30 718.30 L 906.40 715.90 L 910.30 713.10 L 914.90 709.20 L 919.00 704.90 L 922.70 700.20 L 925.80 695.20 L 928.40 689.90 L 930.60 684.30 L 932.10 678.50 L 933.10 672.70 L 933.60 666.70 L 933.40 660.80 L 932.70 654.90 L 931.30 649.10 Z" fill="#fdfdfe" fill-rule="nonzero" node-id="85" stroke="none" target-height="319.90002" target-width="173.09998" target-x="786.2" target-y="649.1"></path><path d="M 566.40 863.10 L 580.50 859.30 L 594.70 856.00 L 609.00 853.30 L 623.50 851.10 L 638.00 849.40 L 652.50 848.20 L 667.10 847.50 L 681.70 847.40 L 696.30 847.70 L 710.80 848.50 L 725.30 849.90 L 739.80 851.70 L 752.70 853.80 L 765.40 856.30 L 778.20 859.30 L 790.80 862.80 L 803.20 866.80 L 815.50 871.30 L 833.40 879.20 L 850.70 888.30 L 859.00 893.30 L 867.10 898.80 L 875.00 904.60 L 889.90 917.00 L 896.80 923.50 L 903.30 930.40 L 909.50 937.60 L 915.30 945.10 L 920.80 952.80 L 926.00 960.80 L 930.70 969.00 L 793.00 968.50 L 780.30 955.70 L 770.90 948.20 L 761.10 942.30 L 751.10 938.20 L 743.30 935.80 L 735.40 934.00 L 719.30 931.00 L 664.00 921.70 L 661.50 921.70 L 656.60 922.70 L 654.30 923.70 L 650.10 926.50 L 646.80 930.30 L 645.50 932.40 L 643.90 937.20 L 643.70 943.80 L 645.00 950.30 L 646.10 953.30 L 649.40 959.10 L 653.80 964.00 L 640.70 968.40 L 634.20 970.80 L 627.90 973.70 L 627.00 971.90 L 625.00 969.20 L 622.60 968.10 L 616.90 967.70 L 599.80 967.80 L 598.90 960.80 L 597.40 953.90 L 595.50 947.10 L 593.10 940.40 L 590.30 934.00 L 587.00 927.70 L 583.30 921.70 L 579.10 916.00 L 574.60 910.50 L 574.40 894.20 L 573.40 883.40 L 572.40 878.10 L 571.00 872.90 L 569.00 867.90 L 566.40 863.10 Z" fill="#fdfdfe" fill-rule="nonzero" node-id="87" stroke="none" target-height="126.29999" target-width="364.3" target-x="566.4" target-y="847.4"></path><path d="M 434.70 866.60 L 436.20 866.50 L 438.90 867.30 L 444.70 872.90 L 449.00 877.90 L 459.90 892.90 L 461.80 894.70 L 464.00 896.00 L 474.20 896.20 L 489.50 895.90 L 513.10 896.70 L 514.50 900.80 L 516.10 903.20 L 518.70 904.90 L 521.60 905.50 L 523.80 905.20 L 525.90 904.30 L 528.10 902.20 L 536.70 884.00 L 542.20 875.40 L 544.70 872.30 L 546.30 871.20 L 548.10 870.40 L 549.50 870.80 L 551.40 872.50 L 553.20 876.10 L 555.50 884.20 L 556.60 894.50 L 556.50 913.40 L 556.70 915.60 L 557.50 917.40 L 558.60 919.20 L 566.60 928.70 L 570.10 933.60 L 573.10 938.90 L 575.70 944.30 L 577.90 950.00 L 579.60 955.80 L 580.90 961.70 L 581.80 967.70 L 412.20 967.50 L 413.20 959.70 L 414.60 951.90 L 417.60 941.80 L 421.90 932.40 L 431.10 917.70 L 431.50 913.90 L 429.90 899.70 L 429.60 891.30 L 429.80 885.70 L 431.20 874.70 L 432.40 870.40 L 433.40 868.40 L 434.70 866.60 Z M 439.30 950.50 L 440.10 953.00 L 441.30 955.30 L 443.00 957.30 L 445.00 959.00 L 449.60 961.60 L 451.80 962.30 L 456.40 962.60 L 461.00 961.70 L 463.20 960.80 L 465.20 959.70 L 468.80 956.70 L 471.40 952.90 L 472.20 950.70 L 472.50 948.70 L 472.30 946.70 L 471.40 944.90 L 470.20 943.30 L 468.60 942.10 L 466.80 941.30 L 464.50 941.10 L 462.50 941.60 L 455.00 945.90 L 452.50 943.70 L 449.80 941.80 L 448.30 941.30 L 445.10 941.30 L 442.30 942.40 L 440.20 944.60 L 439.10 947.50 L 439.30 950.50 Z M 498.60 949.40 L 499.30 951.70 L 500.40 953.80 L 501.90 955.80 L 504.50 958.30 L 507.50 960.50 L 510.30 961.70 L 513.10 962.40 L 516.20 962.60 L 519.20 962.30 L 522.10 961.50 L 524.80 960.20 L 527.30 958.50 L 529.40 956.40 L 531.10 953.80 L 532.30 950.70 L 532.20 947.30 L 530.80 944.20 L 528.40 942.00 L 525.20 941.10 L 522.50 941.50 L 520.60 942.50 L 515.10 946.00 L 509.80 941.90 L 508.30 941.30 L 506.70 941.10 L 503.80 941.50 L 500.80 943.50 L 499.50 945.20 L 498.80 947.20 L 498.60 949.40 Z M 478.10 958.10 L 477.30 958.80 L 477.10 959.70 L 477.80 961.80 L 479.10 963.40 L 482.70 964.70 L 487.60 964.60 L 490.50 963.80 L 492.40 962.00 L 493.10 959.60 L 492.60 958.20 L 491.80 957.60 L 484.90 957.30 L 478.10 958.10 Z" fill="#fdfdfe" fill-rule="nonzero" node-id="89" stroke="none" target-height="101.20001" target-width="169.59998" target-x="412.2" target-y="866.5"></path><path d="M 665.70 626.60 L 666.30 623.30 L 667.10 621.90 L 668.80 620.10 L 670.80 618.80 L 673.20 618.10 L 675.60 617.90 L 678.70 618.80 L 681.50 621.00 L 683.30 624.00 L 683.90 626.60 L 684.10 690.60 L 683.80 711.10 L 713.20 710.10 L 715.10 710.40 L 716.60 710.90 L 719.20 713.10 L 720.80 716.00 L 721.30 718.50 L 721.20 721.10 L 720.80 722.80 L 718.90 725.60 L 717.60 726.80 L 716.10 727.60 L 712.80 728.20 L 673.00 729.40 L 670.00 728.30 L 668.10 726.80 L 666.70 724.80 L 665.70 721.80 L 665.60 720.10 L 665.70 626.60 Z" fill="#233c67" fill-rule="nonzero" node-id="91" stroke="none" target-height="111.5" target-width="55.700012" target-x="665.6" target-y="617.9"></path><path d="M 875.10 706.90 L 879.40 694.20 L 883.20 681.20 L 886.50 668.20 L 889.30 655.00 L 894.20 628.50 L 897.80 630.70 L 901.10 633.20 L 904.10 636.10 L 906.70 639.30 L 911.00 646.30 L 913.90 654.10 L 915.30 662.30 L 915.30 670.50 L 914.60 674.60 L 913.60 678.60 L 912.20 682.50 L 910.30 686.30 L 907.80 690.40 L 904.80 694.10 L 901.40 697.40 L 897.60 700.30 L 893.60 702.70 L 889.20 704.70 L 884.60 706.00 L 879.90 706.80 L 875.10 706.90 Z" fill="#fef0d9" fill-rule="nonzero" node-id="93" stroke="none" target-height="78.400024" target-width="40.200012" target-x="875.1" target-y="628.5"></path><path d="M 430.70 656.10 L 433.10 649.10 L 434.80 645.70 L 438.80 639.40 L 444.00 634.10 L 447.00 631.90 L 450.20 630.10 L 454.20 650.40 L 458.70 670.60 L 461.20 680.40 L 470.10 709.40 L 461.40 707.60 L 457.20 706.20 L 453.10 704.50 L 449.30 702.30 L 445.70 699.60 L 442.60 696.90 L 437.50 690.80 L 433.40 683.70 L 430.80 676.10 L 430.00 672.20 L 429.60 668.10 L 429.60 664.10 L 430.00 660.10 L 430.70 656.10 Z" fill="#feefd9" fill-rule="nonzero" node-id="95" stroke="none" target-height="79.30005" target-width="40.5" target-x="429.6" target-y="630.1"></path><path d="M 729.50 1089.10 L 753.20 1085.70 L 776.70 1081.30 L 777.10 1093.20 L 771.50 1093.30 L 766.00 1093.00 L 744.00 1090.00 L 742.20 1090.20 L 740.60 1090.70 L 739.20 1091.60 L 737.10 1094.20 L 736.10 1097.60 L 736.30 1101.00 L 736.90 1102.60 L 737.80 1104.00 L 739.20 1105.20 L 741.60 1106.60 L 744.20 1107.50 L 755.30 1108.90 L 751.70 1110.60 L 747.80 1111.70 L 740.00 1113.20 L 732.00 1114.00 L 724.10 1114.20 L 716.20 1113.80 L 708.30 1112.90 L 700.50 1111.60 L 692.80 1109.70 L 685.10 1107.40 L 677.70 1104.70 L 661.60 1097.60 L 652.90 1093.40 L 704.00 1091.40 L 716.70 1090.50 L 729.50 1089.10 Z" fill="#feefd9" fill-rule="nonzero" node-id="97" stroke="none" target-height="32.899902" target-width="124.19995" target-x="652.9" target-y="1081.3"></path><path d="M 793.80 633.90 L 797.10 633.10 L 800.20 633.80 L 802.80 635.70 L 804.30 637.70 L 805.20 640.00 L 805.30 643.20 L 804.90 644.90 L 803.40 647.60 L 799.70 652.20 L 796.20 655.10 L 792.50 657.70 L 784.40 661.80 L 778.30 663.90 L 772.10 665.40 L 765.70 666.30 L 759.30 666.70 L 752.90 666.40 L 746.50 665.70 L 740.20 664.30 L 734.10 662.40 L 728.10 659.90 L 723.90 657.60 L 719.90 654.90 L 716.20 651.80 L 713.00 648.30 L 712.00 646.60 L 711.50 644.90 L 711.50 641.10 L 712.90 637.70 L 714.10 636.30 L 715.60 635.30 L 717.40 634.60 L 720.70 634.40 L 724.20 636.00 L 730.10 640.60 L 734.00 643.10 L 738.10 645.20 L 742.50 646.90 L 747.00 648.10 L 751.50 648.90 L 756.20 649.30 L 760.80 649.30 L 765.40 648.80 L 770.00 648.00 L 774.50 646.70 L 778.80 645.00 L 784.90 641.60 L 791.90 635.30 L 793.80 633.90 Z" fill="#233b66" fill-rule="nonzero" node-id="99" stroke="none" target-height="33.600037" target-width="93.79999" target-x="711.5" target-y="633.1"></path><path d="M 439.30 950.50 L 439.10 947.50 L 440.20 944.60 L 442.30 942.40 L 445.10 941.30 L 448.30 941.30 L 449.80 941.80 L 452.50 943.70 L 455.00 945.90 L 462.50 941.60 L 464.50 941.10 L 466.80 941.30 L 468.60 942.10 L 470.20 943.30 L 471.40 944.90 L 472.30 946.70 L 472.50 948.70 L 472.20 950.70 L 471.40 952.90 L 468.80 956.70 L 465.20 959.70 L 463.20 960.80 L 461.00 961.70 L 456.40 962.60 L 451.80 962.30 L 449.60 961.60 L 445.00 959.00 L 443.00 957.30 L 441.30 955.30 L 440.10 953.00 L 439.30 950.50 Z" fill="#233b66" fill-rule="nonzero" node-id="101" stroke="none" target-height="21.5" target-width="33.399994" target-x="439.1" target-y="941.1"></path><path d="M 539.20 636.60 L 542.70 636.10 L 546.50 637.40 L 556.90 645.00 L 561.40 647.40 L 566.20 649.30 L 571.20 650.70 L 576.20 651.70 L 581.30 652.10 L 586.50 652.00 L 591.50 651.40 L 596.60 650.20 L 601.40 648.60 L 606.10 646.40 L 610.50 643.70 L 616.70 638.80 L 618.90 637.50 L 620.50 636.90 L 622.20 636.80 L 625.60 637.40 L 628.20 639.00 L 629.60 640.70 L 630.60 642.80 L 631.00 645.10 L 630.90 647.40 L 629.70 650.20 L 624.50 655.20 L 620.00 658.60 L 615.20 661.50 L 610.10 664.00 L 604.90 666.00 L 599.50 667.50 L 593.90 668.60 L 588.30 669.30 L 577.00 669.30 L 571.40 668.70 L 565.90 667.50 L 560.50 665.90 L 555.30 663.80 L 550.20 661.30 L 545.30 658.50 L 540.70 655.30 L 536.30 651.70 L 534.30 649.30 L 533.70 647.90 L 533.30 645.60 L 533.50 643.30 L 534.20 641.00 L 535.40 639.10 L 536.40 638.00 L 539.20 636.60 Z" fill="#243c66" fill-rule="nonzero" node-id="103" stroke="none" target-height="33.200012" target-width="97.70001" target-x="533.3" target-y="636.1"></path><path d="M 742.00 742.10 L 743.60 741.80 L 746.70 742.10 L 748.90 743.00 L 750.70 744.40 L 752.20 746.30 L 753.10 748.50 L 753.40 751.60 L 753.10 753.20 L 751.90 755.80 L 748.40 760.20 L 742.00 765.80 L 736.90 769.80 L 731.70 773.40 L 726.20 776.70 L 720.50 779.60 L 708.60 784.20 L 696.20 787.50 L 689.90 788.60 L 677.20 789.60 L 663.70 789.20 L 656.80 788.30 L 649.90 786.90 L 643.10 785.20 L 636.40 783.00 L 629.90 780.40 L 623.50 777.50 L 617.30 774.10 L 605.60 766.40 L 600.10 762.10 L 593.60 756.10 L 592.30 753.10 L 592.20 749.80 L 593.30 746.60 L 594.20 745.20 L 596.70 743.10 L 600.00 742.20 L 602.20 742.10 L 604.10 742.70 L 607.60 744.90 L 615.60 751.60 L 626.10 758.50 L 637.40 764.00 L 643.20 766.30 L 655.20 769.70 L 661.40 770.80 L 667.60 771.50 L 673.80 771.70 L 680.10 771.60 L 687.00 770.80 L 693.80 769.60 L 700.60 767.90 L 707.20 765.60 L 713.60 762.90 L 719.80 759.70 L 728.40 753.80 L 732.30 750.50 L 738.80 744.10 L 742.00 742.10 Z" fill="#243c66" fill-rule="nonzero" node-id="105" stroke="none" target-height="47.799988" target-width="161.20001" target-x="592.2" target-y="741.8"></path><path d="M 792.50 670.00 L 796.10 669.60 L 803.20 669.80 L 810.10 671.60 L 816.50 674.80 L 822.00 679.30 L 824.80 682.20 L 827.10 685.40 L 828.90 688.90 L 830.40 692.60 L 831.40 696.50 L 831.90 700.40 L 832.00 704.40 L 831.70 708.30 L 830.90 712.20 L 829.60 716.00 L 827.90 719.60 L 823.50 725.70 L 818.50 730.20 L 815.50 732.10 L 811.40 734.10 L 807.10 735.60 L 802.60 736.50 L 795.70 736.50 L 789.00 735.10 L 785.50 733.80 L 782.20 732.20 L 779.10 730.20 L 776.20 727.80 L 771.40 722.30 L 769.50 719.10 L 767.90 715.80 L 766.60 712.30 L 765.80 708.70 L 765.40 705.10 L 765.50 701.30 L 765.80 697.60 L 766.50 693.90 L 767.60 690.40 L 769.20 687.00 L 771.10 683.90 L 773.40 680.90 L 776.00 678.20 L 778.90 675.80 L 782.00 673.80 L 785.30 672.10 L 788.80 670.80 L 792.50 670.00 Z" fill="#ff793d" fill-rule="nonzero" node-id="107" stroke="none" target-height="66.900024" target-width="66.599976" target-x="765.4" target-y="669.6"></path><path d="M 538.90 670.90 L 543.10 670.10 L 547.20 669.80 L 551.30 670.20 L 555.40 671.10 L 559.30 672.40 L 563.00 674.30 L 566.50 676.60 L 569.60 679.20 L 572.50 682.30 L 574.90 685.70 L 576.90 689.30 L 578.40 693.20 L 579.60 697.50 L 580.20 701.70 L 580.10 706.00 L 579.40 710.30 L 578.20 714.40 L 576.50 718.40 L 574.20 722.20 L 571.60 725.60 L 568.60 728.70 L 565.10 731.40 L 561.40 733.50 L 557.40 735.20 L 553.50 736.30 L 549.60 736.90 L 545.60 737.00 L 541.60 736.60 L 537.70 735.80 L 533.90 734.50 L 530.30 732.80 L 527.00 730.70 L 523.90 728.10 L 521.00 725.10 L 518.60 721.80 L 516.60 718.20 L 515.10 714.30 L 514.10 710.40 L 513.50 706.20 L 513.40 702.10 L 513.80 698.00 L 514.70 694.00 L 516.10 690.10 L 517.90 686.40 L 522.70 680.10 L 525.50 677.60 L 528.50 675.40 L 531.80 673.50 L 538.90 670.90 Z" fill="#ff793e" fill-rule="nonzero" node-id="109" stroke="none" target-height="67.20001" target-width="66.79999" target-x="513.4" target-y="669.8"></path><path d="M 970.40 793.30 L 984.40 802.30 L 998.00 811.80 L 1011.40 821.80 L 1024.50 832.10 L 1037.30 842.80 L 1049.80 853.80 L 1062.10 865.10 L 1074.00 876.70 L 1086.10 889.30 L 1097.90 902.10 L 1109.40 915.20 L 1120.60 928.50 L 1135.00 946.70 L 1149.00 965.30 L 1162.40 984.20 L 1168.40 993.40 L 1173.60 1003.00 L 1175.70 1008.10 L 1177.30 1013.30 L 1178.40 1018.30 L 1179.00 1023.30 L 1179.20 1033.50 L 1178.70 1038.60 L 1177.70 1043.60 L 1176.40 1048.50 L 1174.60 1053.30 L 1172.50 1057.90 L 1169.90 1062.20 L 1166.90 1066.40 L 1163.60 1070.20 L 1159.10 1074.60 L 1154.10 1078.60 L 1150.60 1080.90 L 1143.00 1084.60 L 1139.00 1085.90 L 1135.00 1086.80 L 1130.80 1087.20 L 1122.80 1086.50 L 805.10 1086.50 L 804.80 1046.60 L 804.90 998.20 L 805.40 989.70 L 1048.20 989.40 L 1051.00 988.80 L 1052.20 988.00 L 1053.10 986.90 L 1054.10 983.40 L 1054.30 981.50 L 1054.00 979.60 L 1053.30 977.90 L 1052.10 976.50 L 1050.30 975.50 L 1049.50 973.60 L 1043.40 973.30 L 1025.00 973.40 L 1012.70 972.80 L 1006.70 966.10 L 1000.40 959.70 L 993.80 953.60 L 986.90 947.80 L 972.50 937.10 L 969.10 902.70 L 968.00 885.40 L 967.30 868.10 L 967.30 849.40 L 967.80 830.60 L 968.80 811.90 L 970.40 793.30 Z" fill="#fda028" fill-rule="nonzero" node-id="111" stroke="none" target-height="293.89996" target-width="374.39996" target-x="804.8" target-y="793.3"></path><path d="M 302.40 867.80 L 314.60 855.60 L 327.10 843.80 L 340.00 832.30 L 353.20 821.20 L 366.70 810.50 L 380.50 800.20 L 381.80 812.80 L 383.40 838.10 L 383.60 850.80 L 383.40 867.70 L 382.70 884.60 L 381.50 901.50 L 379.70 918.40 L 377.60 935.20 L 375.10 951.90 L 373.10 955.70 L 361.00 970.80 L 358.60 973.40 L 346.70 973.80 L 328.70 973.60 L 321.30 974.00 L 318.90 975.30 L 317.60 976.90 L 316.60 978.80 L 316.40 980.20 L 316.60 981.60 L 317.90 984.00 L 321.30 987.40 L 323.00 988.10 L 326.80 988.50 L 381.60 988.10 L 561.40 987.80 L 592.80 988.00 L 597.60 987.70 L 599.90 987.10 L 603.40 985.60 L 603.80 999.50 L 604.10 1077.00 L 603.80 1088.90 L 261.70 1088.90 L 249.00 1088.20 L 239.00 1086.30 L 233.70 1084.40 L 228.60 1082.10 L 223.70 1079.20 L 219.20 1075.80 L 215.00 1072.10 L 211.20 1068.00 L 207.80 1063.50 L 204.80 1058.70 L 202.40 1053.60 L 199.40 1044.90 L 197.80 1035.80 L 197.60 1029.60 L 197.80 1023.40 L 198.50 1017.30 L 199.50 1012.50 L 202.50 1003.30 L 205.50 996.70 L 209.00 990.30 L 216.50 977.80 L 226.00 963.20 L 235.90 948.80 L 246.10 934.60 L 256.70 920.70 L 267.60 907.00 L 278.80 893.60 L 290.40 880.50 L 302.40 867.80 Z" fill="#fda028" fill-rule="nonzero" node-id="113" stroke="none" target-height="288.7" target-width="406.49997" target-x="197.6" target-y="800.2"></path><path d="M 498.60 949.40 L 498.80 947.20 L 499.50 945.20 L 500.80 943.50 L 502.50 942.10 L 505.20 941.20 L 508.30 941.30 L 509.80 941.90 L 515.10 946.00 L 520.60 942.50 L 522.50 941.50 L 525.20 941.10 L 526.70 941.40 L 529.70 943.00 L 530.80 944.20 L 532.20 947.30 L 532.30 950.70 L 531.90 952.30 L 529.40 956.40 L 527.30 958.50 L 524.80 960.20 L 522.10 961.50 L 519.20 962.30 L 516.20 962.60 L 513.10 962.40 L 510.30 961.70 L 507.50 960.50 L 504.50 958.30 L 501.90 955.80 L 500.40 953.80 L 498.60 949.40 Z" fill="#223c6a" fill-rule="nonzero" node-id="115" stroke="none" target-height="21.5" target-width="33.69998" target-x="498.6" target-y="941.1"></path><path d="M 478.10 958.10 L 484.90 957.30 L 491.80 957.60 L 492.60 958.20 L 493.10 959.60 L 493.00 960.80 L 491.50 963.10 L 490.50 963.80 L 487.60 964.60 L 484.70 964.90 L 480.90 964.30 L 479.10 963.40 L 477.30 960.70 L 477.10 959.70 L 477.30 958.80 L 478.10 958.10 Z" fill="#283e6a" fill-rule="nonzero" node-id="117" stroke="none" target-height="7.6000366" target-width="16" target-x="477.1" target-y="957.3"></path><path d="M 977.60 964.70 L 978.70 965.00 L 979.20 965.60 L 979.20 966.30 L 978.60 967.60 L 977.50 967.20 L 977.00 966.70 L 977.00 965.90 L 977.60 964.70 Z" fill="#5c789f" fill-rule="nonzero" node-id="119" stroke="none" target-height="2.8999634" target-width="2.2000122" target-x="977" target-y="964.7"></path><path d="M 1012.70 972.80 L 1025.00 973.40 L 1043.40 973.30 L 1049.50 973.60 L 1050.20 975.20 L 1041.30 974.90 L 1014.70 975.00 L 1012.70 972.80 Z" fill="#eca647" fill-rule="nonzero" node-id="121" stroke="none" target-height="2.4000244" target-width="37.49994" target-x="1012.7" target-y="972.8"></path><path d="M 1042.70 988.20 L 1048.50 987.80 L 1052.00 986.50 L 1053.60 985.40 L 1053.10 986.90 L 1052.20 988.00 L 1051.00 988.80 L 1048.20 989.40 L 805.40 989.70 L 804.90 998.20 L 804.80 1046.60 L 805.10 1086.50 L 1122.80 1086.50 L 1130.80 1087.20 L 1132.00 1088.00 L 1127.40 1088.30 L 844.40 1088.10 L 803.40 1088.60 L 803.50 987.80 L 1042.70 988.20 Z" fill="#e8a64d" fill-rule="nonzero" node-id="123" stroke="none" target-height="103.19995" target-width="328.59998" target-x="803.4" target-y="985.4"></path><path d="M 319.80 986.10 L 331.20 986.50 L 426.70 985.90 L 602.10 986.10 L 599.90 987.10 L 597.60 987.70 L 592.80 988.00 L 561.40 987.80 L 381.60 988.10 L 326.80 988.50 L 323.00 988.10 L 321.30 987.40 L 319.80 986.10 Z" fill="#f5a945" fill-rule="nonzero" node-id="125" stroke="none" target-height="2.5999756" target-width="282.3" target-x="319.8" target-y="985.9"></path><path d="M 645.50 1075.00 L 658.40 1070.20 L 664.90 1068.30 L 663.20 1073.00 L 675.20 1074.30 L 645.50 1075.00 Z" fill="#fef6f1" fill-rule="nonzero" node-id="127" stroke="none" target-height="6.699951" target-width="29.700012" target-x="645.5" target-y="1068.3"></path><path d="M 802.50 1088.60 L 844.40 1088.10 L 1127.40 1088.30 L 1124.20 1089.10 L 1117.80 1089.50 L 1108.00 1089.30 L 966.00 1089.00 L 813.20 1089.40 L 802.50 1088.60 Z" fill="#635046" fill-rule="nonzero" node-id="129" stroke="none" target-height="1.4000244" target-width="324.90002" target-x="802.5" target-y="1088.1"></path><path d="M 335.36 -12.90 L 335.36 -82.10 L 318.86 -73.70 L 318.86 -91.10 L 338.36 -102.40 L 354.36 -102.40 L 354.36 -12.90 L 335.36 -12.90 Z M 404.76 -12.90 L 385.86 -12.90 L 386.96 -21.30 L 388.46 -29.50 L 390.36 -37.40 L 392.56 -45.00 L 395.16 -52.30 L 398.16 -59.50 L 401.46 -66.60 L 405.26 -73.50 L 409.46 -80.30 L 414.06 -87.00 L 373.56 -87.00 L 373.56 -102.40 L 435.36 -102.40 L 435.36 -88.80 L 429.46 -80.90 L 424.26 -73.10 L 419.96 -65.30 L 416.06 -57.30 L 412.86 -49.10 L 410.06 -40.60 L 407.96 -32.00 L 406.16 -22.80 L 404.76 -12.90 Z M 452.36 -82.00 L 473.36 -82.00 L 473.36 -61.00 L 452.36 -61.00 L 452.36 -82.00 Z M 452.36 -12.90 L 452.36 -33.90 L 473.36 -33.90 L 473.36 -12.90 L 452.36 -12.90 Z M 523.56 -11.20 L 518.26 -11.20 L 512.96 -11.80 L 507.76 -12.80 L 502.56 -14.40 L 497.46 -16.50 L 497.46 -33.90 L 501.36 -31.40 L 505.36 -29.50 L 509.56 -28.20 L 513.86 -27.30 L 522.36 -26.60 L 526.06 -26.90 L 529.06 -27.60 L 531.56 -28.70 L 533.56 -30.10 L 535.26 -31.90 L 536.46 -34.00 L 537.26 -36.50 L 537.46 -39.30 L 537.26 -42.30 L 536.46 -44.80 L 535.26 -46.80 L 533.66 -48.60 L 531.56 -50.10 L 529.16 -51.30 L 523.46 -52.50 L 507.16 -52.70 L 507.16 -67.30 L 518.66 -67.30 L 522.66 -67.50 L 525.86 -68.00 L 528.56 -68.90 L 530.66 -70.00 L 532.46 -71.60 L 533.76 -73.50 L 534.56 -75.90 L 534.86 -78.80 L 534.46 -81.10 L 533.76 -83.00 L 532.56 -84.70 L 530.96 -86.20 L 529.06 -87.20 L 524.06 -88.60 L 517.56 -88.60 L 510.56 -87.00 L 503.46 -83.80 L 500.26 -81.60 L 500.26 -99.00 L 507.56 -101.80 L 511.76 -102.80 L 520.16 -104.00 L 528.86 -103.90 L 532.86 -103.40 L 536.46 -102.50 L 539.76 -101.30 L 542.86 -99.60 L 545.56 -97.80 L 547.86 -95.60 L 549.86 -93.10 L 551.36 -90.40 L 552.46 -87.50 L 553.26 -84.20 L 553.46 -80.60 L 553.26 -77.20 L 552.56 -74.10 L 551.46 -71.20 L 549.86 -68.40 L 547.86 -66.00 L 545.56 -63.70 L 542.76 -61.80 L 539.56 -60.00 L 542.86 -58.60 L 545.86 -56.90 L 548.46 -54.90 L 550.86 -52.60 L 552.76 -50.10 L 554.36 -47.40 L 555.46 -44.40 L 556.16 -41.30 L 556.46 -37.90 L 556.16 -34.00 L 555.26 -30.40 L 553.96 -27.10 L 552.16 -24.00 L 549.86 -21.20 L 547.16 -18.80 L 544.06 -16.60 L 540.46 -14.70 L 536.76 -13.20 L 532.76 -12.20 L 528.36 -11.50 L 523.56 -11.20 Z M 601.96 -11.20 L 597.26 -11.50 L 593.06 -12.30 L 589.36 -13.50 L 585.96 -15.20 L 582.96 -17.40 L 580.16 -20.00 L 577.76 -23.10 L 575.56 -26.90 L 573.66 -31.30 L 572.06 -36.50 L 570.96 -42.50 L 570.16 -49.60 L 569.86 -57.70 L 570.16 -65.80 L 570.96 -72.90 L 572.06 -78.90 L 573.66 -84.10 L 575.56 -88.50 L 577.76 -92.30 L 580.16 -95.40 L 582.96 -98.00 L 585.96 -100.20 L 589.36 -101.90 L 593.06 -103.10 L 597.26 -103.90 L 601.96 -104.20 L 606.66 -103.90 L 610.86 -103.10 L 614.66 -101.90 L 618.06 -100.20 L 621.06 -98.00 L 623.76 -95.40 L 626.26 -92.30 L 628.46 -88.50 L 630.36 -84.10 L 631.86 -78.90 L 633.06 -72.90 L 633.86 -65.80 L 634.16 -57.70 L 633.86 -49.60 L 633.06 -42.50 L 631.86 -36.50 L 630.36 -31.30 L 628.46 -26.90 L 626.26 -23.10 L 623.76 -20.00 L 621.06 -17.40 L 618.06 -15.20 L 614.66 -13.50 L 610.86 -12.30 L 606.66 -11.50 L 601.96 -11.20 Z M 588.66 -57.70 L 588.96 -49.90 L 589.56 -43.60 L 590.56 -38.60 L 591.86 -34.70 L 593.16 -32.00 L 594.56 -30.00 L 596.06 -28.50 L 597.86 -27.50 L 599.76 -26.80 L 601.96 -26.60 L 604.16 -26.80 L 606.16 -27.40 L 607.96 -28.50 L 609.56 -30.00 L 610.96 -32.00 L 612.26 -34.70 L 613.46 -38.60 L 614.46 -43.60 L 615.06 -49.90 L 615.26 -57.70 L 615.06 -65.40 L 614.46 -71.60 L 613.46 -76.70 L 612.26 -80.70 L 610.96 -83.40 L 609.56 -85.40 L 607.96 -86.90 L 606.16 -88.00 L 604.16 -88.60 L 601.96 -88.80 L 599.76 -88.60 L 597.86 -87.90 L 596.06 -86.90 L 594.56 -85.40 L 593.16 -83.40 L 591.86 -80.70 L 590.56 -76.70 L 589.56 -71.60 L 588.96 -65.40 L 588.66 -57.70 Z M 723.56 -115.90 L 739.86 -115.90 L 739.86 -98.10 L 748.46 -98.10 L 748.46 -82.00 L 739.76 -82.00 L 739.76 -63.10 L 748.06 -65.00 L 748.06 -47.20 L 739.76 -45.30 L 739.66 -0.10 L 714.46 -0.10 L 714.46 -15.60 L 723.56 -15.60 L 723.56 -41.60 L 711.06 -38.80 L 711.06 -56.50 L 723.56 -59.40 L 723.56 -82.00 L 712.36 -82.00 L 712.36 -98.10 L 723.56 -98.10 L 723.56 -115.90 Z M 750.06 -43.40 L 750.06 -55.50 L 829.16 -55.50 L 829.16 -43.40 L 750.06 -43.40 Z M 750.36 -86.20 L 750.36 -99.70 L 754.06 -101.80 L 760.26 -106.60 L 762.96 -109.40 L 767.16 -115.30 L 818.76 -115.30 L 816.76 -109.50 L 812.06 -98.80 L 823.96 -98.80 L 823.96 -58.70 L 754.66 -58.70 L 754.66 -87.50 L 750.36 -86.20 Z M 754.66 -0.10 L 754.66 -40.20 L 823.96 -40.20 L 823.96 -0.10 L 754.66 -0.10 Z M 770.66 -69.30 L 782.26 -69.30 L 782.26 -74.30 L 770.66 -74.30 L 770.66 -69.30 Z M 770.66 -82.90 L 782.26 -82.90 L 782.26 -88.20 L 770.66 -88.20 L 770.66 -82.90 Z M 771.16 -10.50 L 807.46 -10.50 L 807.46 -15.60 L 771.16 -15.60 L 771.16 -10.50 Z M 771.16 -24.70 L 807.46 -24.70 L 807.46 -29.80 L 771.16 -29.80 L 771.16 -24.70 Z M 772.06 -98.80 L 795.96 -98.80 L 798.56 -103.30 L 775.76 -103.30 L 772.06 -98.80 Z M 796.36 -69.30 L 807.96 -69.30 L 807.96 -74.30 L 796.36 -74.30 L 796.36 -69.30 Z M 796.36 -82.90 L 807.96 -82.90 L 807.96 -88.20 L 796.36 -88.20 L 796.36 -82.90 Z M 885.66 -75.20 L 953.06 -75.20 L 953.06 -0.00 L 885.66 -0.00 L 885.66 -75.20 Z M 840.66 -28.30 L 840.66 -47.70 L 859.46 -60.10 L 856.26 -76.80 L 840.66 -66.40 L 840.66 -86.10 L 851.66 -93.40 L 843.66 -115.30 L 861.46 -115.30 L 865.46 -104.50 L 880.96 -114.80 L 880.96 -95.10 L 870.56 -88.20 L 872.76 -79.40 L 874.56 -70.40 L 877.16 -50.80 L 878.56 -27.90 L 879.06 -0.10 L 847.96 -0.10 L 847.96 -16.20 L 862.76 -16.20 L 861.46 -42.10 L 840.66 -28.30 Z M 882.86 -91.50 L 882.86 -107.40 L 894.16 -107.40 L 894.16 -115.90 L 910.56 -115.90 L 910.56 -107.40 L 928.16 -107.40 L 928.16 -115.90 L 944.56 -115.90 L 944.56 -107.40 L 955.86 -107.40 L 955.86 -91.50 L 944.56 -91.50 L 944.56 -80.60 L 928.16 -80.60 L 928.16 -91.50 L 910.56 -91.50 L 910.56 -80.60 L 894.16 -80.60 L 894.16 -91.50 L 882.86 -91.50 Z M 901.06 -15.10 L 912.36 -15.10 L 912.36 -30.60 L 901.06 -30.60 L 901.06 -15.10 Z M 901.06 -44.60 L 912.36 -44.60 L 912.36 -60.10 L 901.06 -60.10 L 901.06 -44.60 Z M 926.36 -15.10 L 937.66 -15.10 L 937.66 -30.60 L 926.36 -30.60 L 926.36 -15.10 Z M 926.36 -44.60 L 937.66 -44.60 L 937.66 -60.10 L 926.36 -60.10 L 926.36 -44.60 Z" fill="#000000" fill-rule="nonzero" node-id="131" stroke="none" target-height="115.9" target-width="637" target-x="318.85712" target-y="-115.900024"></path></g></svg>